<?xml version="1.0" encoding="utf-8"?>
<!-- Generator: Adobe Illustrator 23.0.1, SVG Export Plug-In . SVG Version: 6.00 Build 0)  -->
<svg version="1.1" xmlns="http://www.w3.org/2000/svg" xmlns:xlink="http://www.w3.org/1999/xlink" x="0px" y="0px"
	 viewBox="0 0 1080 1080" style="enable-background:new 0 0 1080 1080;" xml:space="preserve">
<style type="text/css">
	.st0{fill:#B01F24;}
	.st1{fill:#E63928;}
	.st2{fill:#FFFFFF;}
	.st3{fill:#C7C8CA;}
	.st4{fill:#3B6FB7;}
	.st5{fill:#566E9E;}
	.st6{fill:#B3A332;}
	.st7{fill:none;}
	.st8{fill:#F0DB3C;}
	.st9{fill:#EFAC1F;}
	.st10{fill:#B3822C;}
	.st11{fill:none;stroke:#C7C8CA;stroke-width:3;stroke-miterlimit:10;}
	.st12{fill:none;stroke:#3B6FB7;stroke-width:3;stroke-miterlimit:10;}
</style>
<g id="Layer_2">
	<path class="st0" d="M600.55,275.74c-14.05,4-26.47,5.41-36.83,5.48v-44.43C578.78,248.56,590.9,261.7,600.55,275.74z"/>
	<path class="st1" d="M563.72,236.79v44.43c-21.3,0.17-33.94-5.29-34.36-5.48C546.64,249.29,563.72,236.79,563.72,236.79z"/>
	<path class="st2" d="M529.84,341.29c0,19.02,15.05,34.51,33.88,35.24v73.3c-1.74,0.39-9.5,6.16-3.05,79.78
		c-25.82-0.55-43.87-6.87-44.43-7.06c-0.01-0.01-0.01-0.01-0.01-0.01c-9.27-26.17-15.29-50.39-18.75-72.73
		c-12.88-83.1,9.67-140.1,31.87-174.07c0,0,0,0,0.01,0c0.42,0.19,13.06,5.65,34.36,5.48v24.82
		C544.89,306.77,529.84,322.27,529.84,341.29z"/>
	<path class="st1" d="M562.91,552.5c-4.32-0.1-8.42-0.46-12.21-0.97c-3.92-0.52-7.52-1.21-10.7-1.95
		c-9.46-2.2-15.29-4.82-15.29-4.82c-3.09-7.56-5.91-14.96-8.47-22.21c0.56,0.19,18.61,6.51,44.43,7.06
		C561.28,536.61,562.02,544.22,562.91,552.5z"/>
	<path class="st3" d="M630.07,449.81c-4.64,29.68-12.14,55.32-17.98,72.44c-15.41,5.02-30.32,7.01-43.61,7.35
		c10.18-87.44-4.43-79.79-4.43-79.79s-0.12-0.03-0.33,0.02v-73.3c0.46,0.02,0.93,0.03,1.39,0.03c19.48,0,35.27-15.79,35.27-35.27
		s-15.79-35.28-35.27-35.28c-0.46,0-0.93,0.01-1.39,0.03v-24.82c10.36-0.07,22.78-1.48,36.83-5.48
		C637.48,329.41,638.44,396.21,630.07,449.81z"/>
	<path class="st0" d="M612.09,522.25c-4.83,14.17-8.52,22.51-8.52,22.51c-5.39,2.36-10.77,4.08-16.02,5.31
		c-3.01,0.68-5.97,1.21-8.88,1.59c-4.53,0.61-8.94,0.86-13.14,0.87c1.16-8.29,2.13-15.92,2.95-22.93
		C581.77,529.26,596.68,527.27,612.09,522.25z"/>
	<path class="st1" d="M516.23,522.54c-41.94,0.67-57.9,17.46-57.9,17.46c1.44-59.8,39.15-90.19,39.15-90.19
		C500.94,472.15,506.96,496.37,516.23,522.54z"/>
	<path class="st0" d="M670.22,540c0,0-21.8-18.09-58.13-17.75c5.84-17.12,13.34-42.76,17.98-72.44
		C630.07,449.81,668.78,478.4,670.22,540z"/>
	<path class="st0" d="M568.48,529.6c-0.82,7.01-1.79,14.64-2.95,22.93c-0.47,3.32-0.96,6.74-1.48,10.28
		c-0.11-0.98-0.22-1.95-0.33-2.91V449.83c0.21-0.05,0.33-0.02,0.33-0.02S578.66,442.16,568.48,529.6z"/>
	<path class="st1" d="M563.72,449.83V559.9c-0.29-2.53-0.56-4.99-0.81-7.4c-0.89-8.28-1.63-15.89-2.24-22.89
		C554.22,455.99,561.98,450.22,563.72,449.83z"/>
	<path class="st4" d="M533.34,341.29c0,17.07,13.47,31.01,30.38,31.74v3.5c-18.83-0.73-33.88-16.22-33.88-35.24
		s15.05-34.52,33.88-35.25v3.5C546.81,310.27,533.34,324.21,533.34,341.29z"/>
	<path class="st5" d="M600.38,341.29c0,19.48-15.79,35.27-35.27,35.27c-0.46,0-0.93-0.01-1.39-0.03v-3.5
		c0.46,0.02,0.92,0.03,1.39,0.03c17.55,0,31.78-14.23,31.78-31.77c0-17.55-14.23-31.78-31.78-31.78c-0.47,0-0.93,0.01-1.39,0.03
		v-3.5c0.46-0.02,0.93-0.03,1.39-0.03C584.59,306.01,600.38,321.81,600.38,341.29z"/>
	<path class="st6" d="M586.66,618.73c-3.94,18.98-10.96,41.99-22.94,69.15v-80.27c22.46-24.21,14.95-55.95,14.95-55.95
		c2.91-0.38,5.87-0.91,8.88-1.59C587.85,550.85,596.12,573.21,586.66,618.73z"/>
	<path class="st7" d="M587.55,550.07c-0.01-0.01-0.01-0.02-0.01-0.02"/>
	<path class="st8" d="M563.72,607.61v80.27c-44.14-97.9-24.17-137.44-23.72-138.3c3.18,0.74,6.78,1.43,10.7,1.95
		C544.01,582.62,563.72,607.61,563.72,607.61z"/>
	<path class="st7" d="M540,549.58c0-0.01,0-0.01,0-0.01"/>
	<path class="st9" d="M563.72,559.9v47.71c0,0-19.71-24.99-13.02-56.08c3.79,0.51,7.89,0.87,12.21,0.97
		C563.16,554.91,563.43,557.37,563.72,559.9z"/>
	<path class="st10" d="M563.72,607.61V559.9c0.11,0.96,0.22,1.93,0.33,2.91c0.52-3.54,1.01-6.96,1.48-10.28
		c4.2-0.01,8.61-0.26,13.14-0.87C578.67,551.66,586.18,583.4,563.72,607.61z"/>
	<path class="st6" d="M596.89,341.29c0,17.54-14.23,31.77-31.78,31.77c-0.47,0-0.93-0.01-1.39-0.03v-63.49
		c0.46-0.02,0.92-0.03,1.39-0.03C582.66,309.51,596.89,323.74,596.89,341.29z"/>
	<path class="st8" d="M563.72,309.54v63.49c-16.91-0.73-30.38-14.67-30.38-31.74C533.34,324.21,546.81,310.27,563.72,309.54z"/>
</g>
<g id="Layer_1">
	<g>
		<line class="st11" x1="413.81" y1="228.02" x2="413.81" y2="258.79"/>
		<path class="st11" d="M420.8,233.61h-10.49c-2.7,0-4.9,2.19-4.9,4.9s2.19,4.9,4.9,4.9h6.99c2.7,0,4.9,2.19,4.9,4.9
			c0,2.7-2.19,4.9-4.9,4.9h-11.89"/>
	</g>
	<g>
		<line class="st11" x1="447.57" y1="354.79" x2="447.57" y2="376.87"/>
		<path class="st11" d="M452.58,358.8h-7.53c-1.94,0-3.51,1.57-3.51,3.51s1.57,3.51,3.51,3.51h5.02c1.94,0,3.51,1.57,3.51,3.51
			s-1.57,3.51-3.51,3.51h-8.53"/>
	</g>
	<g>
		<line class="st11" x1="378.78" y1="316.37" x2="378.78" y2="338.45"/>
		<path class="st11" d="M383.8,320.39h-7.53c-1.94,0-3.51,1.57-3.51,3.51c0,1.94,1.57,3.51,3.51,3.51h5.02
			c1.94,0,3.51,1.57,3.51,3.51s-1.57,3.51-3.51,3.51h-8.53"/>
	</g>
	<g>
		<line class="st11" x1="321.53" y1="254.76" x2="321.53" y2="285.53"/>
		<path class="st11" d="M328.53,260.35h-10.49c-2.7,0-4.9,2.19-4.9,4.9c0,2.7,2.19,4.9,4.9,4.9h6.99c2.7,0,4.9,2.19,4.9,4.9
			s-2.19,4.9-4.9,4.9h-11.89"/>
	</g>
	<g>
		<line class="st11" x1="296.56" y1="367.43" x2="296.56" y2="388.42"/>
		<path class="st11" d="M301.33,371.25h-7.15c-1.84,0-3.34,1.49-3.34,3.34s1.49,3.34,3.34,3.34h4.77c1.84,0,3.34,1.49,3.34,3.34
			c0,1.84-1.49,3.34-3.34,3.34h-8.11"/>
	</g>
	<g>
		<line class="st11" x1="235.4" y1="342.26" x2="235.4" y2="373.03"/>
		<path class="st11" d="M242.39,347.85H231.9c-2.7,0-4.9,2.19-4.9,4.9c0,2.7,2.19,4.9,4.9,4.9h6.99c2.7,0,4.9,2.19,4.9,4.9
			c0,2.7-2.19,4.9-4.9,4.9H227"/>
	</g>
	<g>
		<line class="st11" x1="670.22" y1="260.35" x2="670.22" y2="291.13"/>
		<path class="st11" d="M677.21,265.95h-10.49c-2.7,0-4.9,2.19-4.9,4.9c0,2.7,2.19,4.9,4.9,4.9h6.99c2.7,0,4.9,2.19,4.9,4.9
			c0,2.7-2.19,4.9-4.9,4.9h-11.89"/>
	</g>
	<g>
		<line class="st11" x1="751.9" y1="403.55" x2="751.9" y2="424.72"/>
		<path class="st11" d="M756.71,407.4h-7.22c-1.86,0-3.37,1.51-3.37,3.37c0,1.86,1.51,3.37,3.37,3.37h4.81
			c1.86,0,3.37,1.51,3.37,3.37c0,1.86-1.51,3.37-3.37,3.37h-8.18"/>
	</g>
	<g>
		<line class="st11" x1="777.3" y1="275.74" x2="777.3" y2="306.51"/>
		<path class="st11" d="M784.29,281.34H773.8c-2.7,0-4.9,2.19-4.9,4.9c0,2.7,2.19,4.9,4.9,4.9h6.99c2.7,0,4.9,2.19,4.9,4.9
			c0,2.7-2.19,4.9-4.9,4.9h-11.89"/>
	</g>
	<g>
		<line class="st11" x1="825.12" y1="342.26" x2="825.12" y2="373.03"/>
		<path class="st11" d="M832.11,347.85h-10.49c-2.7,0-4.9,2.19-4.9,4.9c0,2.7,2.19,4.9,4.9,4.9h6.99c2.7,0,4.9,2.19,4.9,4.9
			c0,2.7-2.19,4.9-4.9,4.9h-11.89"/>
	</g>
	<g>
		<line class="st12" x1="564.53" y1="320.65" x2="564.53" y2="361.92"/>
		<path class="st12" d="M573.91,328.15h-14.07c-3.63,0-6.57,2.94-6.57,6.57s2.94,6.57,6.57,6.57h9.38c3.63,0,6.57,2.94,6.57,6.57
			s-2.94,6.57-6.57,6.57h-15.94"/>
	</g>
	<g>
		<line class="st11" x1="867.45" y1="275.5" x2="867.45" y2="300.92"/>
		<path class="st11" d="M873.23,280.12h-8.67c-2.23,0-4.04,1.81-4.04,4.04c0,2.23,1.81,4.04,4.04,4.04h5.78
			c2.23,0,4.04,1.81,4.04,4.04c0,2.23-1.81,4.04-4.04,4.04h-9.82"/>
	</g>
	<path class="st3" d="M792.8,815.72c8.56-88.67-79.34-92.56-79.34-92.56c-32.67-39.67-79.09,25.67-79.09,25.67l-30.8,5.44
		l-16.91-135.54c9.46-45.52,1.19-67.88,0.89-68.66c5.25-1.23,10.63-2.95,16.02-5.31l30.8,162.84c0,0,28.8-31.16,57.31-28.78
		c37.34,3.11,34.23,33.45,34.23,33.45s57.56-1.56,74.67,37.33c17.11,38.9,0,72.34,0,72.34s24.64-2.33,32.93,14.78h-54.44
		C791.6,829.25,792.8,815.72,792.8,815.72z"/>
	<path class="st2" d="M792.8,815.72c0,0-1.2,13.53-13.73,21H311.32c3.11-58.34,61.45-74.67,61.45-74.67s2.69-15.13,12.02-30.77
		c0.01-0.01,0.01-0.01,0.01-0.01c7.32-12.27,18.75-24.86,36.19-30.67c1.69-0.56,3.38-1.04,5.08-1.43l0.01-0.01
		c38.28-8.99,78.92,21.66,78.92,21.66l2.01-17.92l17.7-158.14c0,0,5.83,2.62,15.29,4.82c-0.45,0.86-20.42,40.4,23.72,138.3
		c11.98-27.16,19-50.17,22.94-69.15l16.91,135.54l30.8-5.44c0,0,46.42-65.34,79.09-25.67C713.46,723.16,801.36,727.05,792.8,815.72z
		"/>
	<path class="st3" d="M507.01,702.9L505,720.82c0,0-40.64-30.65-78.92-21.66C452.93,674.41,507.01,702.9,507.01,702.9z"/>
	<path class="st2" d="M330.14,765.41c-4.19,8.38-10.48,0-10.48,0s-9.96,7.34-11.53,0c-1.57-7.34,8.98-11.79,8.98-11.79
		s-6.88-11.79,5.65-11.79c12.54,0,10,8.9,10,8.9s8.39-2.09,8.91,5.25C342.2,763.31,330.14,765.41,330.14,765.41z"/>
	<path class="st3" d="M775.82,706.69c0,0-16.8,1.21-12.36-12.12c0,0-3.55-9.34,4.88-9.34c8.43,0,7.48,6.35,7.48,6.35
		s8.93-3.64,9.82,2.99S775.82,706.69,775.82,706.69z"/>
	<path class="st3" d="M830.51,795.73c0,0-3.17,2.81-6.99,1.6c-3.83-1.2,0-9.61,0-9.61c4.58-6.81,9.39,0,9.39,0
		S835.31,795.73,830.51,795.73z"/>
	<path class="st3" d="M384.79,731.28c-9.33,15.64-12.02,30.77-12.02,30.77s-58.34,16.33-61.45,74.67h-6.59
		c-1.24-60.44,61.31-81.24,61.31-81.24C368.9,745.39,384.31,731.71,384.79,731.28z"/>
	<path class="st7" d="M384.8,731.27c0,0,0,0-0.01,0.01"/>
</g>
</svg>
