<?xml version="1.0" encoding="utf-8"?>
<!-- Generator: Adobe Illustrator 23.0.1, SVG Export Plug-In . SVG Version: 6.00 Build 0)  -->
<svg version="1.1" id="Layer_2" xmlns="http://www.w3.org/2000/svg" xmlns:xlink="http://www.w3.org/1999/xlink" x="0px" y="0px"
	 viewBox="0 0 1080 1080" style="enable-background:new 0 0 1080 1080;" xml:space="preserve">
<style type="text/css">
	.st0{fill:#FFFFFF;}
</style>
<path class="st0" d="M743.85,267.88v108.37H376.17v128.28c-71.6,14.11-127.72,41.08-127.72,41.08V267.88H743.85z"/>
<path class="st0" d="M376.17,684.59V935.5H248.45V794.06C248.45,794.06,287.16,732.42,376.17,684.59z"/>
<path class="st0" d="M981.87,387.86L859.95,534.93l-15.48-89.02c-137.39,44.51-265.11,100.63-265.11,100.63
	s-103.08,43.99-203.19,100.41c-46.85,26.41-93.06,55.56-127.72,84.2c-15.56,12.85-28.78,25.58-38.7,37.93
	c-76.98,95.77-13.66,153.28-9.85,156.61c-4.7-3.52-104.26-79.01-102.39-150.8c0,0-5.52-68.91,150.94-152.04
	c28.93-15.38,63.41-31.27,104.5-47.28c7.76-3.02,15.5-6,23.22-8.9C592.21,485,787.08,445.91,840.6,436.24l-46.44-77.41
	L981.87,387.86z"/>
<g>
	<path class="st0" d="M264.07,192.6c5.52,5.63,30.59,30.48,51.15,35.61c0,0,15.48-25.16,13.55-48.38c0,0,9.68,29.03,30.96,38.7
		c0,0,15.48-13.55,25.16-52.25c-9.68,63.86,0,102.56,0,102.56c-58.05,63.86-137.39,65.79-137.39,65.79s1.92-17.28-76.46-61.38
		l0.08-0.1c5.36,2.34,30.98,12.68,55.09,9.23c0,0,1.88-20.71-9.21-45.42l0.31-0.29c3.85,3.5,21.75,18.38,45.67,16.68
		c0,0,5.65-26.34,0.23-60.45"/>
	<circle class="st0" cx="163.31" cy="265.95" r="10.64"/>
	<circle class="st0" cx="209.75" cy="229.18" r="10.64"/>
	<circle class="st0" cx="260.06" cy="182.74" r="10.64"/>
	<circle class="st0" cx="329.73" cy="169.19" r="10.64"/>
	<circle class="st0" cx="385.85" cy="155.64" r="10.64"/>
</g>
</svg>
