<svg width="320" height="268" viewBox="0 0 320 268" fill="none" xmlns="http://www.w3.org/2000/svg">
<path d="M124.248 198.018C124.248 198.018 124.256 198.014 124.277 198.01C124.39 197.376 124.616 196.775 125.022 196.36C125.031 196.347 125.043 196.335 125.056 196.322" stroke="white" stroke-miterlimit="10" stroke-linejoin="round"/>
<path d="M124.993 196.473L125.022 196.36L125.027 196.339" stroke="white" stroke-miterlimit="10" stroke-linejoin="round"/>
<path d="M136.663 201.399C136.663 201.399 136.893 202.335 133.618 203.977L77.4057 225.859L62.6699 236.252L34.2916 253.213C34.2916 253.213 21.7382 253.759 18.4668 248.287C18.4668 248.287 13.5535 242.27 7.55109 241.174C7.55109 241.174 12.4644 250.475 15.7358 252.117C15.7358 252.117 4.82008 244.458 1 246.099C1 246.099 7.00238 254.855 18.4626 257.043C18.4626 257.043 5.90913 254.309 3.72683 257.043C3.72683 257.043 17.9139 262.514 34.832 254.309C34.832 254.309 35.9252 255.405 34.832 256.497L18.4584 264.156C18.4584 264.156 38.1033 257.593 41.3789 254.855C41.3789 254.855 43.0166 254.309 43.0166 255.951L29.3741 265.798C29.3741 265.798 37.5588 261.422 41.3789 260.872C45.1989 260.326 50.6568 255.401 50.6568 255.401C50.6568 255.401 52.8391 255.947 52.2946 258.684C52.2946 258.684 47.93 264.156 47.3812 267.44L61.5683 258.684L62.1128 261.418C62.1128 261.418 63.2061 263.606 65.3884 261.964C67.5707 260.322 74.1218 258.134 74.1218 258.134C74.1218 258.134 80.6687 258.68 86.1265 255.401C86.1265 255.401 89.4021 256.497 95.949 253.213C95.949 253.213 104.134 254.309 104.134 251.025C104.134 251.025 110.136 251.571 111.774 249.929C111.774 249.929 121.052 250.475 120.507 247.741C120.507 247.741 128.692 249.929 132.512 247.195C132.512 247.195 137.425 247.741 139.608 245.554C139.608 245.554 147.248 246.65 147.248 243.912C147.248 243.912 154.343 244.458 154.343 242.27C154.343 242.27 159.801 242.816 159.801 240.082C159.801 240.082 164.166 240.628 164.715 237.894C164.715 237.894 169.079 238.99 170.717 235.706C170.717 235.706 173.992 235.706 175.63 232.973C175.63 232.973 181.088 232.427 179.995 229.689C179.995 229.689 184.531 229.672 184.992 226.674" stroke="white" stroke-miterlimit="10" stroke-linejoin="round"/>
<path d="M123.318 193.954L123.736 192.274L121.86 192.975" stroke="white" stroke-miterlimit="10" stroke-linejoin="round"/>
<path d="M18.1821 256.942L20.2765 258.621" stroke="white" stroke-miterlimit="10"/>
<path d="M16.5061 258.621L14.4118 257.782L12.686 258.739L13.7416 256.232L14.4118 257.782L16.5061 256.665V258.819L18.4706 257.047" stroke="white" stroke-miterlimit="10" stroke-linejoin="round"/>
<path d="M13.5744 256.102L11.0612 257.782V256.014L9.04648 258.332L7.41709 255.858L6.87256 257.362L4.38867 256.522" stroke="white" stroke-miterlimit="10" stroke-linejoin="round"/>
<path d="M6.03516 257.782L6.87289 257.362L8.96723 258.202" stroke="white" stroke-miterlimit="10" stroke-linejoin="round"/>
<path d="M8.9668 258.202L11.0611 257.782L12.7366 258.621" stroke="white" stroke-miterlimit="10" stroke-linejoin="round"/>
<path d="M14.4121 247.284C14.4121 246.864 13.3691 243.719 13.3691 243.719L11.48 247.284H14.4121ZM14.4121 247.284L15.476 251.97" stroke="white" stroke-miterlimit="10" stroke-linejoin="round"/>
<path d="M11.4799 247.284L11.061 243.924H13.5742" stroke="white" stroke-miterlimit="10" stroke-linejoin="round"/>
<path d="M11.0615 243.924L9.54101 241.724L9.11377 243.924H11.0615Z" stroke="white" stroke-miterlimit="10" stroke-linejoin="round"/>
<path d="M47.5026 249.383L51.2724 247.704L42.895 248.123L55.4611 243.924L53.0609 242.001" stroke="white" stroke-miterlimit="10" stroke-linejoin="round"/>
<path d="M55.4613 243.924L54.6235 248.543L58.8122 244.344L55.4613 243.924Z" stroke="white" stroke-miterlimit="10" stroke-linejoin="round"/>
<path d="M58.8124 244.344L61.7444 241.825L55.4614 243.924L61.0868 237.206L67.1897 237.625V233.069L73.0539 238.045L67.1897 237.625" stroke="white" stroke-miterlimit="10" stroke-linejoin="round"/>
<path d="M61.7441 241.825L67.1893 237.625L67.6082 242.245L61.7441 241.825ZM61.7441 241.825L61.3252 237.206" stroke="white" stroke-miterlimit="10" stroke-linejoin="round"/>
<path opacity="0.08" d="M71.4448 233.023C109.072 220.371 130.811 206.241 130.811 206.241C130.811 206.241 118.446 220.623 106.839 224.763C95.2323 228.904 71.4448 233.023 71.4448 233.023Z" fill="#9AEADB"/>
<path d="M130.945 198.056L130.903 198.048H130.895C130.539 197.901 130.342 197.834 130.342 197.834C130.074 197.565 129.572 197.439 128.96 197.401L127.678 196.767C127.913 196.729 129.496 196.095 129.597 196.057L129.601 196.053L130.945 198.056Z" stroke="white" stroke-miterlimit="10" stroke-linejoin="round"/>
<path d="M126.526 195.768C125.881 195.768 125.404 195.982 125.056 196.322L125.039 196.293L125.027 196.339L123.318 197.313L124.156 194.794L123.565 194.201L125.412 194.794L126.526 195.768Z" stroke="white" stroke-miterlimit="10" stroke-linejoin="round"/>
<path d="M177.352 223.768L173.067 223.776C175.354 224.478 177.775 225.129 180.338 225.712L177.352 223.768ZM300.072 54.0696C300.072 54.0696 319.172 33.2793 319.172 32.7334C319.172 32.7334 292.989 50.7774 288.067 53.5195C288.452 53.087 313.191 25.5738 316.441 19.6025C316.441 19.6025 295.703 35.4671 280.967 51.3317L281.516 48.598C281.516 48.598 298.974 32.1875 308.797 8.12186C308.298 8.76014 276.578 49.7066 273.327 51.3317L274.42 48.598C274.42 48.598 296.252 18.5065 295.703 1C295.703 1 277.696 41.4846 268.963 49.1439C268.963 49.1439 283.154 28.3536 280.423 1C280.423 1 274.42 33.2709 260.238 56.7949C260.472 56.2448 270.517 32.5571 263.505 17.4147C263.505 17.4147 266.236 44.7684 247.68 72.6721C247.68 72.6721 220.395 107.685 213.844 115.89C213.844 115.89 189.407 152.054 178.793 165.701L178.818 173.168L176.271 168.821L173.163 174.217L171.069 172.97C167.567 175.372 162.067 179.219 157.636 182.637C157.636 182.637 154.36 182.637 149.447 184.279H135.26C135.26 184.279 134.854 184.417 134.162 184.669C133.333 184.98 132.097 185.459 130.677 186.084C130.037 186.366 129.354 186.676 128.654 187.017C127.729 187.466 126.774 187.961 125.835 188.495H128.344L127.088 190.174L125.831 191.014L124.575 190.594L123.737 192.274L122.505 191.039C122.124 191.619 121.906 192.266 121.81 192.942L121.86 192.975L123.318 193.954L123.565 194.201L125.412 194.793L126.527 195.768C125.881 195.768 125.404 195.982 125.056 196.322L125.04 196.293L125.027 196.339L123.318 197.313L122.241 196.771C122.966 199.119 124.239 201.084 124.34 201.231C124.315 201.088 124.013 199.45 124.277 198.01C124.315 198.002 124.386 197.985 124.487 197.96C125.207 197.792 127.415 197.309 128.96 197.401L127.678 196.767C127.913 196.729 129.496 196.095 129.597 196.057L129.601 196.053L132.533 197.313L135.046 198.573L130.987 198.06L130.946 198.056L130.904 198.048C130.92 198.06 130.941 198.065 130.958 198.073C131.846 198.447 133.631 199.287 135.855 200.819C137.019 201.626 138.309 202.617 139.654 203.826C140.659 204.733 141.698 205.762 142.741 206.929C142.967 207.181 143.193 207.442 143.419 207.706C143.419 207.706 149.15 213.703 161.217 219.275H161.221L161.226 219.279C163.261 220.22 165.477 221.148 167.877 222.03L171.488 220.409L177.071 223.608H177.075L182.797 224.188L183.987 224.935L187.237 226.985C188.343 227.056 190.588 227.174 193.273 227.186C195.401 227.203 197.805 227.153 200.143 226.959C200.143 226.959 202.874 225.326 213.241 225.893C213.241 225.893 227.96 235.219 238.867 239.07L242.142 239.074C242.142 239.074 243.24 235.249 247.056 237.445L254.151 237.457C254.151 237.457 252.514 236.361 257.427 236.37L262.336 236.378C262.336 236.378 261.796 233.64 266.165 233.649L264.535 229.815L266.717 229.819L263.45 224.889C263.45 224.889 267.27 224.352 268.368 222.164C268.368 222.164 268.912 221.618 266.734 220.522L230.192 208.416C230.192 208.416 225.832 204.578 225.844 197.464C225.844 197.464 231.306 196.381 229.132 190.905C229.132 190.905 232.404 192.005 235.143 185.992C235.143 185.992 239.512 185.454 240.065 181.079C240.065 181.079 243.881 183.275 246.08 175.07C246.08 175.07 247.713 176.716 250.457 169.611C250.457 169.611 253.184 170.707 254.83 164.148C254.83 164.148 258.65 164.702 259.756 157.043C259.756 157.043 263.027 159.239 263.588 151.579C263.588 151.579 265.687 153.641 268.418 143.794C268.418 143.794 271.694 149.266 273.327 138.323C273.327 138.323 276.058 138.868 277.147 131.209C277.147 131.209 274.965 126.288 275.514 123.004C275.514 123.004 280.423 129.571 282.605 127.929C284.787 126.288 283.698 123.55 282.605 120.816C282.605 120.816 288.607 116.44 280.967 111.515C280.967 111.515 280.423 110.419 281.516 109.873C281.516 109.873 278.249 109.327 275.522 106.593C275.786 106.791 282.174 111.414 287.518 106.589C287.518 106.589 289.701 102.759 288.063 100.572C288.063 100.572 291.338 100.572 291.338 92.9123C291.338 92.9123 296.252 89.6327 295.159 84.707C295.159 84.707 304.436 76.5018 297.341 72.6721C297.341 72.6721 303.892 65.5586 302.799 61.729C302.799 61.729 310.439 53.5237 310.439 49.1439C310.439 49.1439 305.525 50.7858 300.072 54.0696ZM188.548 226.699L187.317 226.968L188.243 224.608L190.839 226.199L188.548 226.699Z" stroke="white" stroke-miterlimit="10" stroke-linejoin="round"/>
<path d="M173.067 223.776C171.249 223.222 169.519 222.638 167.877 222.03L171.488 220.409V222.088L173.067 223.776Z" stroke="white" stroke-miterlimit="10" stroke-linejoin="round"/>
<path d="M124.893 189.053L124.575 190.594L123.737 192.274L122.505 191.039C122.82 190.556 123.243 190.124 123.8 189.75C124.156 189.511 124.52 189.28 124.893 189.053Z" stroke="white" stroke-miterlimit="10" stroke-linejoin="round"/>
<path d="M125.831 188.499V191.014L124.574 190.594L124.893 189.053C125.203 188.864 125.517 188.68 125.831 188.499Z" stroke="white" stroke-miterlimit="10" stroke-linejoin="round"/>
<path opacity="0.08" d="M180.288 170.82C224.856 118.788 244.601 78.635 244.601 78.635C244.601 78.635 233.778 113.421 220.24 129.823C206.702 146.225 180.288 170.82 180.288 170.82Z" fill="#9AEADB"/>
<path d="M220.395 196.318L214.677 195.234L220.395 183.187L220.458 196.536L224.759 191.392L225.848 197.41" stroke="white" stroke-miterlimit="10" stroke-linejoin="round"/>
<path d="M202.383 192.488L207.841 179.903L196.431 191.14L202.383 192.488Z" stroke="white" stroke-miterlimit="10" stroke-linejoin="round"/>
<path d="M196.863 191.237L190.463 189.796L189.286 194.126L196.381 191.392V191.14V181.545L207.842 179.903L211.662 183.187" stroke="white" stroke-miterlimit="10" stroke-linejoin="round"/>
<path d="M189.285 194.126L186.559 196.318L189.285 199.597V194.126Z" stroke="white" stroke-miterlimit="10" stroke-linejoin="round"/>
<path d="M189.08 199.412L198.714 202.352L193.269 206.131C193.269 206.551 177.771 210.75 177.771 210.75L189.285 199.597L197.47 196.864L189.285 194.13" stroke="white" stroke-miterlimit="10" stroke-linejoin="round"/>
<path d="M196.381 191.392L197.47 196.864L198.563 202.335L202.383 192.488L214.937 195.222" stroke="white" stroke-miterlimit="10" stroke-linejoin="round"/>
<path d="M225.849 197.41L222.577 200.147H226.058" stroke="white" stroke-miterlimit="10" stroke-linejoin="round"/>
<path d="M222.577 200.147L220.939 202.881L223.121 205.619L222.577 200.147Z" stroke="white" stroke-miterlimit="10" stroke-linejoin="round"/>
<path d="M226.057 200.147L223.121 205.619L227.029 203.624" stroke="white" stroke-miterlimit="10" stroke-linejoin="round"/>
<path d="M227.029 203.624C227.029 203.624 226.263 201.789 226.058 200.147" stroke="white" stroke-miterlimit="10" stroke-linejoin="round"/>
<path d="M225.848 197.653L220.395 196.318L222.577 200.147" stroke="white" stroke-miterlimit="10" stroke-linejoin="round"/>
<path d="M208.386 190.296L202.479 192.497L211.657 183.183L208.386 190.296ZM208.386 190.296L214.932 195.222L211.657 183.187H220.663L224.755 191.392L229.119 190.846C229.119 190.846 231.302 196.318 225.844 197.41" stroke="white" stroke-miterlimit="10" stroke-linejoin="round"/>
<path d="M225.848 197.41C225.848 197.41 225.48 199.988 227.03 203.62" stroke="white" stroke-miterlimit="10" stroke-linejoin="round"/>
<path d="M207.841 179.903L211.661 173.34V183.187" stroke="white" stroke-miterlimit="10" stroke-linejoin="round"/>
<path d="M220.395 183.187L211.661 173.34L225.848 176.073L220.395 183.187Z" stroke="white" stroke-miterlimit="10" stroke-linejoin="round"/>
<path d="M224.759 191.392L225.848 176.073L229.124 190.846" stroke="white" stroke-miterlimit="10" stroke-linejoin="round"/>
<path d="M211.661 173.34L237.857 170.056L225.848 176.073L234.582 180.999L229.124 191.392" stroke="white" stroke-miterlimit="10" stroke-linejoin="round"/>
<path d="M234.582 180.999L237.857 170.056L243.713 180.096L234.582 180.999Z" stroke="white" stroke-miterlimit="10" stroke-linejoin="round"/>
<path d="M234.582 180.999L239.541 182.889" stroke="white" stroke-miterlimit="10" stroke-linejoin="round"/>
<path d="M260.233 156.925L250.407 160.209L234.582 161.851L237.857 170.056L250.407 160.209L254.29 165.945L237.857 170.056L225.848 161.851L225.576 171.593" stroke="white" stroke-miterlimit="10" stroke-linejoin="round"/>
<path d="M202.383 192.488L204.021 196.864L199.941 198.778" stroke="white" stroke-miterlimit="10"/>
<path d="M210.568 198.506H217.664L218.103 195.885L210.568 198.506ZM210.568 198.506L211.661 194.508L204.021 196.864L210.861 198.573" stroke="white" stroke-miterlimit="10" stroke-linejoin="round"/>
<path d="M195.363 210.75L198.714 202.352L210.568 198.505L213.844 201.239L217.664 198.505L220.642 196.318" stroke="white" stroke-miterlimit="10" stroke-linejoin="round"/>
<path d="M260.233 156.925V147.624L250.407 160.209L237.857 154.187L260.233 147.624L265.649 150.643" stroke="white" stroke-miterlimit="10" stroke-linejoin="round"/>
<path d="M268.418 143.794L260.233 147.624L232.944 144.34L237.857 154.187" stroke="white" stroke-miterlimit="10" stroke-linejoin="round"/>
<path d="M232.944 144.34L243.86 139.964L260.233 147.624" stroke="white" stroke-miterlimit="10" stroke-linejoin="round"/>
<path d="M259.684 142.152L261.322 129.021L249.317 127.929" stroke="white" stroke-miterlimit="10" stroke-linejoin="round"/>
<path d="M264.589 142.736L261.322 129.021L271.145 137.777L264.589 142.736Z" stroke="white" stroke-miterlimit="10" stroke-linejoin="round"/>
<path d="M250.059 138.243L249.318 127.929L259.706 142.081L235.126 132.305L243.86 139.964L268.418 143.248L271.145 137.777L272.515 142.152" stroke="white" stroke-miterlimit="10" stroke-linejoin="round"/>
<path d="M276.058 135.589L264.053 121.912L271.145 137.776L275.953 135.878" stroke="white" stroke-miterlimit="10" stroke-linejoin="round"/>
<path d="M247.68 107.685L264.053 121.912L261.322 129.021L247.68 107.685ZM247.68 107.685L249.317 127.929" stroke="white" stroke-miterlimit="10" stroke-linejoin="round"/>
<path d="M275.513 123.004L264.053 121.912L275.513 108.781V123.004Z" stroke="white" stroke-miterlimit="10" stroke-linejoin="round"/>
<path d="M275.514 123.004L279.878 122.458L280.456 127.791" stroke="white" stroke-miterlimit="10" stroke-linejoin="round"/>
<path d="M283.861 125.124L279.878 122.458L284.557 115.315" stroke="white" stroke-miterlimit="10" stroke-linejoin="round"/>
<path d="M279.878 122.458L275.513 108.781L259.094 117.604C259.689 117.536 263.509 107.139 263.509 107.139L252.626 111.981" stroke="white" stroke-miterlimit="10" stroke-linejoin="round"/>
<path d="M280.988 110.335L275.513 108.781L273.327 100.572L271.145 111.124L263.504 107.139" stroke="white" stroke-miterlimit="10" stroke-linejoin="round"/>
<path d="M271.145 110.969L269.507 94.0082L273.327 100.572L282.219 108.777" stroke="white" stroke-miterlimit="10" stroke-linejoin="round"/>
<path d="M283.355 108.781L285.881 100.026L288.545 103.805" stroke="white" stroke-miterlimit="10" stroke-linejoin="round"/>
<path d="M285.88 100.026L291.259 94.827" stroke="white" stroke-miterlimit="10" stroke-linejoin="round"/>
<path d="M293.831 90.4179L288.063 89.0826L285.88 100.026L273.327 100.572L288.063 89.0826L269.507 94.0083L264.053 74.8599L278.94 91.5055L283.154 71.5761L294.065 55.1614L279.334 60.6329L283.154 71.5761L271.693 83.4011L279.334 60.6329L264.053 74.8599" stroke="white" stroke-miterlimit="10" stroke-linejoin="round"/>
<path d="M298.761 80.3734L288.063 89.0826L281.294 80.3734H298.761Z" stroke="white" stroke-miterlimit="10" stroke-linejoin="round"/>
<path d="M283.154 71.576L296.834 80.3734" stroke="white" stroke-miterlimit="10" stroke-linejoin="round"/>
<path d="M299.917 69.4555L287.975 74.6793L287.196 65.4915L299.917 69.4555Z" stroke="white" stroke-miterlimit="10" stroke-linejoin="round"/>
<path d="M292.83 67.2467L294.065 55.1614L297.885 60.0871L293.194 63.6984L299.917 69.4555" stroke="white" stroke-miterlimit="10" stroke-linejoin="round"/>
<path d="M300.432 53.6749L297.885 60.0871L297.349 67.2552" stroke="white" stroke-miterlimit="10" stroke-linejoin="round"/>
<path d="M300.432 53.6748L294.065 55.1613L299.917 45.8433L300.432 53.6748Z" stroke="white" stroke-miterlimit="10" stroke-linejoin="round"/>
<path d="M301.58 66.8183L297.885 60.087L304.621 59.6293" stroke="white" stroke-miterlimit="10" stroke-linejoin="round"/>
<path d="M300.432 53.6749L304.621 59.6294" stroke="white" stroke-miterlimit="10" stroke-linejoin="round"/>
<path d="M304.621 59.6293L306.074 53.5237L309.287 52.8728" stroke="white" stroke-miterlimit="10" stroke-linejoin="round"/>
<path d="M308.993 49.6814L306.074 53.5237L302.241 56.249" stroke="white" stroke-miterlimit="10" stroke-linejoin="round"/>
<path d="M306.074 53.5237L300.432 53.6749" stroke="white" stroke-miterlimit="10" stroke-linejoin="round"/>
<path d="M299.917 45.8432L304.436 45.3141L300.432 53.6747" stroke="white" stroke-miterlimit="10" stroke-linejoin="round"/>
<path d="M305.618 48.0059L304.437 45.3142L312.449 40.4725" stroke="white" stroke-miterlimit="10" stroke-linejoin="round"/>
<path d="M312.449 40.4725L304.437 42.7947" stroke="white" stroke-miterlimit="10" stroke-linejoin="round"/>
<path d="M312.449 40.4725L314.472 35.9584" stroke="white" stroke-miterlimit="10" stroke-linejoin="round"/>
<path d="M288.063 53.5236L293.521 42.5805L298.761 41.4215" stroke="white" stroke-miterlimit="10" stroke-linejoin="round"/>
<path d="M303.787 35.6056L300.616 37.109L306.074 27.9673L305.617 33.4599" stroke="white" stroke-miterlimit="10" stroke-linejoin="round"/>
<path d="M306.074 27.9673L312.78 24.7465" stroke="white" stroke-miterlimit="10" stroke-linejoin="round"/>
<path d="M300.616 37.1089L295.301 37.3272L293.521 42.5805L300.616 37.1089ZM300.616 37.1089L299.917 40.0987" stroke="white" stroke-miterlimit="10" stroke-linejoin="round"/>
<path d="M293.521 42.5806L284.243 51.3317L288.063 53.5237" stroke="white" stroke-miterlimit="10" stroke-linejoin="round"/>
<path d="M284.242 51.3316L281.687 58.718L280.422 51.8817L284.242 51.3316ZM284.242 51.3316L292.829 39.5906" stroke="white" stroke-miterlimit="10" stroke-linejoin="round"/>
<path d="M287.195 42.5511L290.794 34.9211L282.311 41.4215L285.16 44.8313L276.699 48.0059L272.782 51.8818L279.333 60.6329L276.699 48.0059L280.988 51.802" stroke="white" stroke-miterlimit="10" stroke-linejoin="round"/>
<path d="M276.058 42.5806L275.589 46.9351L273.909 44.5836L273.365 43.8193L272.782 51.8818L270.114 48.0059L267.325 54.0696L276.058 56.2574L272.447 61.0403L261.867 58.4452L264.258 49.4967L267.325 54.0696L272.782 61.1831" stroke="white" stroke-miterlimit="10" stroke-linejoin="round"/>
<path d="M273.875 44.7683L276.033 42.7947L276.565 38.8223L281.26 38.2134" stroke="white" stroke-miterlimit="10" stroke-linejoin="round"/>
<path d="M281.26 38.2133L282.06 33.8251L284.607 32.5402" stroke="white" stroke-miterlimit="10" stroke-linejoin="round"/>
<path d="M276.565 38.8222L282.06 33.8251V29.0548L284.942 31.9481" stroke="white" stroke-miterlimit="10" stroke-linejoin="round"/>
<path d="M282.06 29.0548L286.973 25.6199L286.291 29.4915" stroke="white" stroke-miterlimit="10" stroke-linejoin="round"/>
<path d="M286.974 25.6199L286.488 20.4465L288.607 20.1483L286.974 25.6199Z" stroke="white" stroke-miterlimit="10" stroke-linejoin="round"/>
<path d="M261.867 58.4451L260.233 56.8032" stroke="white" stroke-miterlimit="10" stroke-linejoin="round"/>
<path d="M260.233 56.8033L257.758 52.8728" stroke="white" stroke-miterlimit="10" stroke-linejoin="round"/>
<path d="M257.758 52.8727L260.233 51.8817V56.8032" stroke="white" stroke-miterlimit="10" stroke-linejoin="round"/>
<path d="M263.245 48.0059L260.233 51.8817V45.8433" stroke="white" stroke-miterlimit="10" stroke-linejoin="round"/>
<path d="M260.233 45.8433L263.245 48.0059" stroke="white" stroke-miterlimit="10" stroke-linejoin="round"/>
<path d="M263.245 48.0059L262.96 40.9386L261.05 46.4312" stroke="white" stroke-miterlimit="10" stroke-linejoin="round"/>
<path d="M262.323 35.9584L262.96 40.9386L265.113 39.8426" stroke="white" stroke-miterlimit="10" stroke-linejoin="round"/>
<path d="M265.113 39.8427L262.323 35.3789" stroke="white" stroke-miterlimit="10" stroke-linejoin="round"/>
<path d="M262.323 35.9584L265.951 32.0825L262.855 32.5024" stroke="white" stroke-miterlimit="10" stroke-linejoin="round"/>
<path d="M265.951 32.0826L264.598 25.6201L265.502 24.0706" stroke="white" stroke-miterlimit="10" stroke-linejoin="round"/>
<path d="M262.855 32.5024L264.597 25.6199L263.634 20.1483" stroke="white" stroke-miterlimit="10" stroke-linejoin="round"/>
<path d="M264.258 49.4967L269.687 48.006" stroke="white" stroke-miterlimit="10" stroke-linejoin="round"/>
<path d="M269.687 48.006L270.6 41.4846L266.973 48.7492" stroke="white" stroke-miterlimit="10" stroke-linejoin="round"/>
<path d="M265.276 47.4432L270.6 41.4845V34.9211" stroke="white" stroke-miterlimit="10" stroke-linejoin="round"/>
<path d="M270.6 41.4845L272.782 38.2049L270.6 34.9211" stroke="white" stroke-miterlimit="10" stroke-linejoin="round"/>
<path d="M272.096 43.6345L272.783 38.2049L277.076 31.3812" stroke="white" stroke-miterlimit="10" stroke-linejoin="round"/>
<path d="M277.076 31.3812L270.789 34.5348" stroke="white" stroke-miterlimit="10" stroke-linejoin="round"/>
<path d="M277.076 31.3812L274.588 23.5497L270.985 34.0183" stroke="white" stroke-miterlimit="10" stroke-linejoin="round"/>
<path d="M274.588 23.5497L276.603 24.5239L277.076 31.3812" stroke="white" stroke-miterlimit="10" stroke-linejoin="round"/>
<path d="M276.603 24.5239L279.719 20.4507" stroke="white" stroke-miterlimit="10" stroke-linejoin="round"/>
<path d="M279.719 20.4507L274.667 23.2935" stroke="white" stroke-miterlimit="10" stroke-linejoin="round"/>
<path d="M279.719 20.4507L277.696 16.3187L274.793 22.8821" stroke="white" stroke-miterlimit="10" stroke-linejoin="round"/>
<path d="M278.316 10.3391L277.696 16.3188L280.967 8.11353L278.316 10.3391Z" stroke="white" stroke-miterlimit="10" stroke-linejoin="round"/>
<path d="M280.967 8.11344L279.803 4.01501" stroke="white" stroke-miterlimit="10" stroke-linejoin="round"/>
<path d="M124.344 201.24C124.344 201.24 124.344 201.235 124.34 201.231" stroke="white" stroke-miterlimit="10"/>
<path d="M260.237 56.7949C260.237 56.7993 260.233 56.7993 260.233 56.8037" stroke="white" stroke-miterlimit="10"/>
<path d="M308.801 8.11353C308.801 8.11792 308.797 8.11792 308.797 8.12232" stroke="white" stroke-miterlimit="10"/>
<path d="M288.067 53.5194C288.067 53.5239 288.063 53.5239 288.063 53.5239" stroke="white" stroke-miterlimit="10"/>
<path d="M275.522 106.593C275.518 106.593 275.518 106.593 275.514 106.589" stroke="white" stroke-miterlimit="10"/>
<path d="M225.303 211.086L228.034 215.466L227.029 203.624L225.303 211.086ZM225.303 211.086L223.121 205.619" stroke="white" stroke-miterlimit="10" stroke-linejoin="round"/>
<path d="M231.306 212.182L236.601 210.541L230.217 208.353L231.306 212.182ZM231.306 212.182L227.62 210.616L230.213 208.353C230.213 208.353 228.031 206.711 226.937 203.427C226.937 203.427 225.844 200.693 225.844 197.41C225.844 197.41 231.302 196.864 229.12 190.846C229.12 190.846 232.94 191.942 235.122 185.921C235.122 185.921 239.487 185.375 240.035 180.995C240.035 180.995 243.856 183.729 246.038 174.977" stroke="white" stroke-miterlimit="10" stroke-linejoin="round"/>
<path d="M236.764 210.541L238.946 218.2L240.898 211.964L236.764 210.541Z" stroke="white" stroke-miterlimit="10" stroke-linejoin="round"/>
<path d="M238.946 218.2L241.677 221.484L241.129 212.182" stroke="white" stroke-miterlimit="10" stroke-linejoin="round"/>
<path d="M241.678 221.484L245.498 218.746L241.129 212.182" stroke="white" stroke-miterlimit="10" stroke-linejoin="round"/>
<path d="M249.259 216.831L250.407 225.313L245.498 218.746L251.76 215.559L241.129 212.182" stroke="white" stroke-miterlimit="10" stroke-linejoin="round"/>
<path d="M242.222 238.99L231.855 232.427L243.918 236.958C243.918 236.954 242.766 237.348 242.222 238.99Z" stroke="white" stroke-miterlimit="10" stroke-linejoin="round"/>
<path d="M237.857 232.15L236.764 227.501L243.86 236.802L235.126 230.235L231.855 232.427L238.946 238.99" stroke="white" stroke-miterlimit="10" stroke-linejoin="round"/>
<path d="M252.593 237.348H247.135L249.317 235.706L242.766 229.689L243.981 236.928" stroke="white" stroke-miterlimit="10" stroke-linejoin="round"/>
<path d="M236.764 227.501L242.766 229.689L250.406 225.313L256.413 223.671L249.631 219.59L251.499 215.693" stroke="white" stroke-miterlimit="10" stroke-linejoin="round"/>
<path d="M249.317 235.706L250.406 225.313L251.5 234.615" stroke="white" stroke-miterlimit="10" stroke-linejoin="round"/>
<path d="M251.5 234.615L262.415 236.257L254.821 236.538L251.5 234.615ZM251.5 234.615L252.538 237.453L249.317 235.706L251.5 234.615Z" stroke="white" stroke-miterlimit="10" stroke-linejoin="round"/>
<path d="M254.378 228.774L256.413 223.672L262.416 236.257L250.604 225.259" stroke="white" stroke-miterlimit="10" stroke-linejoin="round"/>
<path d="M266.235 233.519C266.235 233.519 261.871 232.973 262.415 236.252" stroke="white" stroke-miterlimit="10" stroke-linejoin="round"/>
<path d="M266.164 233.649L264.598 229.689L262.629 232.821" stroke="white" stroke-miterlimit="10" stroke-linejoin="round"/>
<path d="M266.236 233.519L260.589 232.427L264.535 229.815L256.413 223.672" stroke="white" stroke-miterlimit="10" stroke-linejoin="round"/>
<path d="M264.598 229.689H266.78L263.504 224.767L264.598 229.689Z" stroke="white" stroke-miterlimit="10" stroke-linejoin="round"/>
<path d="M263.504 224.767L260.924 227.09L260.777 221.488L263.45 224.898C267.76 224.478 268.401 221.845 268.401 221.845L260.777 221.492L260.023 218.309L266.78 220.4" stroke="white" stroke-miterlimit="10" stroke-linejoin="round"/>
<path d="M266.78 220.388C266.78 220.388 268.418 221.484 268.418 222.029" stroke="white" stroke-miterlimit="10" stroke-linejoin="round"/>
<path d="M260.233 218.2L252.777 221.484" stroke="white" stroke-miterlimit="10" stroke-linejoin="round"/>
<path d="M257.502 224.217L260.778 221.484H253.138L251.5 215.466" stroke="white" stroke-miterlimit="10" stroke-linejoin="round"/>
<path d="M251.5 215.466L260.024 218.296" stroke="white" stroke-miterlimit="10" stroke-linejoin="round"/>
<path d="M244.124 236.882C244.124 236.882 245.497 236.256 247.135 237.352" stroke="white" stroke-miterlimit="10" stroke-linejoin="round"/>
<path d="M252.501 237.348H254.231C254.231 237.348 253.381 236.912 254.625 236.584" stroke="white" stroke-miterlimit="10" stroke-linejoin="round"/>
<path d="M238.163 236.42L238.946 238.99H242.222" stroke="white" stroke-miterlimit="10" stroke-linejoin="round"/>
<path d="M290.794 34.9211L296.834 30.0836L290.794 30.9864V34.9211Z" stroke="white" stroke-miterlimit="10" stroke-linejoin="round"/>
<path d="M301.907 22.0588L294.61 30.4153L296.834 23.39L301.907 22.0588Z" stroke="white" stroke-miterlimit="10" stroke-linejoin="round"/>
<path d="M296.909 23.2935L300.616 19.6024L301.094 22.2731" stroke="white" stroke-miterlimit="10" stroke-linejoin="round"/>
<path d="M300.616 19.6025L304.047 18.2168" stroke="white" stroke-miterlimit="10" stroke-linejoin="round"/>
<path d="M303.967 18.2503L303.858 14.4584L305.546 15.3067L306.581 10.9689" stroke="white" stroke-miterlimit="10" stroke-linejoin="round"/>
<path d="M288.607 20.1482L289.52 14.2609L293.303 13.8788L288.607 20.1482ZM288.607 20.1482L290.283 21.45L286.974 25.6198" stroke="white" stroke-miterlimit="10" stroke-linejoin="round"/>
<path d="M293.521 14.1307V8.11327L295.556 4.39697" stroke="white" stroke-miterlimit="10" stroke-linejoin="round"/>
<path d="M293.521 8.11352L293.303 6.26587" stroke="white" stroke-miterlimit="10" stroke-linejoin="round"/>
<path d="M293.521 8.11353L290.999 11.1789" stroke="white" stroke-miterlimit="10" stroke-linejoin="round"/>
<path d="M247.852 81.7886L238.988 83.8168L241.858 93.1726L247.852 81.7886Z" stroke="white" stroke-miterlimit="10" stroke-linejoin="round"/>
<path d="M220.319 107.685L231.385 105.35L228.353 97.4264L241.857 93.1726L251.072 84.7742L249.816 92.7527L241.857 93.1726L243.625 77.8665L251.072 84.7742L247.721 72.5965L247.679 72.6721L256.957 67.7464L251.277 66.8184L256.957 67.7464L252.936 63.7572L261.866 58.4452L260.777 61.7289L279.333 60.6329L288.062 53.5237L271.102 68.2923L260.777 61.7289L264.053 74.8599L257.502 78.6895L262.155 67.2551L256.957 67.7464L260.777 61.7289L252.936 63.7572L260.233 56.8033" stroke="white" stroke-miterlimit="10" stroke-linejoin="round"/>
<path d="M237.857 94.4324L231.386 105.35L232.642 110.809L222.912 107.139L223.008 115.848L217.613 111.124" stroke="white" stroke-miterlimit="10" stroke-linejoin="round"/>
<path d="M220.495 120.048L215.175 114.144L220.336 113.455L220.449 120.01L223.004 115.836L233.107 110.898" stroke="white" stroke-miterlimit="10" stroke-linejoin="round"/>
<path d="M179.027 173.377L173.163 174.217L169.867 173.797L168.975 175.897L167.383 175.527L169.812 173.797L171.069 172.97C173.167 171.526 174.55 170.602 174.55 170.602C174.943 170.295 175.53 169.682 176.271 168.821C176.979 167.998 177.829 166.944 178.793 165.701" stroke="white" stroke-miterlimit="10"/>
<path d="M179.865 178.416H174.419L177.004 173.667L179.865 178.416ZM179.865 178.416L179.027 173.377L184.472 174.637L178.792 169.338" stroke="white" stroke-miterlimit="10" stroke-linejoin="round"/>
<path d="M178.608 165.819L181.959 167.499L179.027 169.556" stroke="white" stroke-miterlimit="10" stroke-linejoin="round"/>
<path d="M181.13 167.083L180.682 163.232" stroke="white" stroke-miterlimit="10" stroke-linejoin="round"/>
<path d="M180.85 164.66L184.054 162.04L182.37 160.965" stroke="white" stroke-miterlimit="10" stroke-linejoin="round"/>
<path d="M184.234 158.428L184.054 162.04L191.174 160.78L184.234 158.428Z" stroke="white" stroke-miterlimit="10" stroke-linejoin="round"/>
<path d="M210.17 121.299L208.767 127.606L207.841 124.709" stroke="white" stroke-miterlimit="10" stroke-linejoin="round"/>
<path d="M208.767 127.606L204.959 129.021L206.254 132.645L208.767 127.606Z" stroke="white" stroke-miterlimit="10" stroke-linejoin="round"/>
<path d="M203.464 135.442L202.53 132.448L205.91 131.679" stroke="white" stroke-miterlimit="10" stroke-linejoin="round"/>
<path d="M210.233 145.033L206.882 146.713L207.72 151.332L210.233 145.033Z" stroke="white" stroke-miterlimit="10" stroke-linejoin="round"/>
<path d="M211.28 149.862L213.374 153.221L208.306 149.862H211.28ZM211.28 149.862L209.919 145.822" stroke="white" stroke-miterlimit="10" stroke-linejoin="round"/>
<path d="M213.19 153.1L208.767 155.741L208.348 149.862" stroke="white" stroke-miterlimit="10" stroke-linejoin="round"/>
<path d="M212.57 148.879L213.257 150.227L215.163 148.333L212.57 148.879Z" stroke="white" stroke-miterlimit="10" stroke-linejoin="round"/>
<path d="M215.05 148.182V145.663L213.865 148.606" stroke="white" stroke-miterlimit="10" stroke-linejoin="round"/>
<path d="M217.161 116.348L215.05 120.048V114.169" stroke="white" stroke-miterlimit="10" stroke-linejoin="round"/>
<path d="M213.375 122.987L215.05 120.048L211.662 119.107L213.375 122.987ZM213.375 122.987L209.752 123.184C209.605 122.987 213.794 130.126 213.794 130.126L208.838 127.287" stroke="white" stroke-miterlimit="10" stroke-linejoin="round"/>
<path d="M203.322 135.585L200.809 138.944L205.462 138.532" stroke="white" stroke-miterlimit="10" stroke-linejoin="round"/>
<path d="M200.808 138.944L199.97 147.762L197.558 141.22" stroke="white" stroke-miterlimit="10" stroke-linejoin="round"/>
<path d="M197.457 149.442L196.619 154.901L193.474 146.725L197.457 149.442ZM197.457 149.442L196.276 145.541" stroke="white" stroke-miterlimit="10" stroke-linejoin="round"/>
<path d="M208.767 134.325L213.793 130.126L208.306 128.53L208.767 134.325ZM208.767 134.325L206.254 132.645L203.322 135.585L207.431 133.43L206.673 140.204L203.322 135.585L199.146 137.34L200.809 138.944L195.393 142.736L199.971 147.762" stroke="white" stroke-miterlimit="10" stroke-linejoin="round"/>
<path d="M191.174 160.78L192.431 156.581L195.363 157.001L191.174 160.78Z" stroke="white" stroke-miterlimit="10" stroke-linejoin="round"/>
<path d="M184.975 158.68L192.431 156.581L188.703 152.222" stroke="white" stroke-miterlimit="10" stroke-linejoin="round"/>
<path d="M192.226 156.341V147.25L197.482 145.033" stroke="white" stroke-miterlimit="10" stroke-linejoin="round"/>
<path d="M195.363 157.001L197.458 156.161L196.62 154.901L195.363 157.001Z" stroke="white" stroke-miterlimit="10" stroke-linejoin="round"/>
<path d="M192.226 155.951L196.62 154.901" stroke="white" stroke-miterlimit="10" stroke-linejoin="round"/>
<path d="M184.892 214.53L195.363 210.75L193.269 206.131" stroke="white" stroke-miterlimit="10" stroke-linejoin="round"/>
<path d="M202.484 201.239L205.835 206.131L210.861 198.573" stroke="white" stroke-miterlimit="10"/>
<path d="M198.714 202.352L205.835 206.131L195.363 210.75" stroke="white" stroke-miterlimit="10"/>
<path d="M177.771 210.75L176.514 215.79L165.205 213.69L177.771 210.75ZM177.771 210.75L184.891 214.53L193.269 206.131L189.08 199.413" stroke="white" stroke-miterlimit="10" stroke-linejoin="round"/>
<path d="M161.221 219.275C161.23 219.271 161.263 219.266 161.318 219.266C161.267 219.275 161.238 219.279 161.225 219.279L161.221 219.275Z" stroke="white" stroke-miterlimit="10" stroke-linejoin="round"/>
<path d="M176.514 215.79L171.487 220.409C171.487 220.409 162.369 219.267 161.317 219.267C162.616 219.027 176.514 215.79 176.514 215.79Z" stroke="white" stroke-miterlimit="10" stroke-linejoin="round"/>
<path d="M177.351 223.768L173.066 223.776L171.487 222.088V220.409L177.071 223.608H177.075L177.351 223.768Z" stroke="white" stroke-miterlimit="10" stroke-linejoin="round"/>
<path d="M185.005 214.488L176.514 215.79L177.071 223.608" stroke="white" stroke-miterlimit="10" stroke-linejoin="round"/>
<path d="M187.237 226.985C186.764 226.955 186.5 226.934 186.5 226.934C184.363 226.573 182.307 226.166 180.338 225.712L177.352 223.768L177.075 223.608L182.797 224.188L187.237 226.985Z" stroke="white" stroke-miterlimit="10" stroke-linejoin="round"/>
<path d="M187.316 226.968L187.237 226.985" stroke="white" stroke-miterlimit="10" stroke-linejoin="round"/>
<path d="M190.839 226.199H190.844L196.201 225.028L193.273 227.186L193.269 227.19" stroke="white" stroke-miterlimit="10" stroke-linejoin="round"/>
<path d="M182.797 224.188L179.961 222.542L177.008 220.833L176.87 220.753L182.194 216.625V216.621L184.891 214.53" stroke="white" stroke-miterlimit="10" stroke-linejoin="round"/>
<path d="M201.5 226.485L196.201 225.028L207.929 222.508L201.5 226.485Z" stroke="white" stroke-miterlimit="10" stroke-linejoin="round"/>
<path d="M190.839 226.199L188.548 226.699L187.316 226.968L188.242 224.608L190.839 226.199Z" stroke="white" stroke-miterlimit="10" stroke-linejoin="round"/>
<path d="M190.844 226.199H190.839" stroke="white" stroke-miterlimit="10" stroke-linejoin="round"/>
<path d="M188.243 224.608L183.987 224.935" stroke="white" stroke-miterlimit="10" stroke-linejoin="round"/>
<path d="M179.962 222.542L183.216 221.249L176.933 220.829" stroke="white" stroke-miterlimit="10" stroke-linejoin="round"/>
<path d="M180.543 221.068L182.194 216.621" stroke="white" stroke-miterlimit="10" stroke-linejoin="round"/>
<path d="M199.552 222.508L205.835 221.668L202.065 223.768L198.714 222.088L196.201 225.028" stroke="white" stroke-miterlimit="10" stroke-linejoin="round"/>
<path d="M231.804 232.586L225.94 231.747L229.71 227.547C229.71 227.547 220.495 227.127 220.076 227.127C219.657 227.127 225.94 231.747 225.94 231.747L224.315 232.427" stroke="white" stroke-miterlimit="10" stroke-linejoin="round"/>
<path d="M226.543 231.835L231.612 236.034L231.804 232.586L229.71 227.547L235.155 230.487" stroke="white" stroke-miterlimit="10" stroke-linejoin="round"/>
<path d="M219.657 222.508L213.374 222.088L213.165 225.889L219.657 222.508ZM219.657 222.508L220.076 227.127L220.462 230.189" stroke="white" stroke-miterlimit="10" stroke-linejoin="round"/>
<path d="M213.374 222.088L209.471 225.788L207.929 222.508L212.956 217.049L213.374 222.088Z" stroke="white" stroke-miterlimit="10" stroke-linejoin="round"/>
<path d="M213.374 222.088L207.929 222.508" stroke="white" stroke-miterlimit="10" stroke-linejoin="round"/>
<path d="M212.955 217.049L209.604 212.01V218.309L212.955 217.049Z" stroke="white" stroke-miterlimit="10" stroke-linejoin="round"/>
<path d="M209.605 212.01L204.997 210.331L209.605 215.466" stroke="white" stroke-miterlimit="10" stroke-linejoin="round"/>
<path d="M174.42 184.296L169.381 180.386L163.529 178.417" stroke="white" stroke-miterlimit="10" stroke-linejoin="round"/>
<path d="M177.143 181.356L184.892 182.196L179.865 178.417L174.42 184.296V178.417L169.393 180.516L168.975 175.897L163.529 178.261L161.016 183.036L169.498 180.474" stroke="white" stroke-miterlimit="10" stroke-linejoin="round"/>
<path d="M144.261 184.279V186.395L149.288 184.295L153.476 187.235L159.759 192.694L157.992 184.72" stroke="white" stroke-miterlimit="10" stroke-linejoin="round"/>
<path d="M138.971 186.193H134.61L137.978 189.754L138.971 186.193Z" stroke="white" stroke-miterlimit="10" stroke-linejoin="round"/>
<path d="M128.654 187.017L133.371 187.235L130.677 186.084" stroke="white" stroke-miterlimit="10" stroke-linejoin="round"/>
<path d="M124.156 194.794L123.318 197.313L122.241 196.771C122.116 196.368 122.007 195.952 121.927 195.533L124.156 194.794Z" stroke="white" stroke-miterlimit="10" stroke-linejoin="round"/>
<path d="M125.056 196.322L125.027 196.339" stroke="white" stroke-miterlimit="10" stroke-linejoin="round"/>
<path d="M124.156 197.733L123.318 197.313" stroke="white" stroke-miterlimit="10" stroke-linejoin="round"/>
<path d="M124.156 194.794L121.927 195.533C121.755 194.663 121.688 193.781 121.81 192.942L121.86 192.975L123.318 193.954L123.565 194.201L124.156 194.794Z" stroke="white" stroke-miterlimit="10" stroke-linejoin="round"/>
<path d="M128.344 188.495L127.088 190.174L125.831 191.014V188.495H128.344Z" stroke="white" stroke-miterlimit="10" stroke-linejoin="round"/>
<path d="M128.344 188.495L128.763 187.235L130.439 188.915L133.161 187.227" stroke="white" stroke-miterlimit="10" stroke-linejoin="round"/>
<path d="M124.487 197.96L127.088 196.473L127.658 196.755C127.641 196.767 127.649 196.771 127.679 196.767L127.658 196.755" stroke="white" stroke-miterlimit="10" stroke-linejoin="round"/>
<path d="M130.987 198.06L130.958 198.073L130.945 198.056L130.987 198.06Z" stroke="white" stroke-miterlimit="10" stroke-linejoin="round"/>
<path d="M135.046 198.573L130.988 198.06L130.946 198.056L129.601 196.053L132.533 197.313L135.046 198.573Z" stroke="white" stroke-miterlimit="10" stroke-linejoin="round"/>
<path d="M132.533 197.313L136.303 196.053L137.119 199.329" stroke="white" stroke-miterlimit="10" stroke-linejoin="round"/>
<path d="M135.046 198.573L135.855 200.819L139.654 200.252L135.046 198.573Z" stroke="white" stroke-miterlimit="10" stroke-linejoin="round"/>
<path d="M142.586 206.971L146.775 207.811L148.023 211.574" stroke="white" stroke-miterlimit="10" stroke-linejoin="round"/>
<path d="M146.774 207.811L151.801 210.331L147.662 211.305" stroke="white" stroke-miterlimit="10" stroke-linejoin="round"/>
<path d="M153.418 215.16L159.34 209.491L151.801 210.331L153.418 215.16Z" stroke="white" stroke-miterlimit="10" stroke-linejoin="round"/>
<path d="M153.477 215.37H160.178L161.016 219.149" stroke="white" stroke-miterlimit="10" stroke-linejoin="round"/>
<path d="M136.554 197.065L140.072 193.954L139.653 200.252V203.826L143.423 204.872L142.74 206.929L147.193 204.032L146.774 207.811L144.261 205.711" stroke="white" stroke-miterlimit="10" stroke-linejoin="round"/>
<path d="M139.968 195.533L143.423 204.872L147.193 204.032" stroke="white" stroke-miterlimit="10" stroke-linejoin="round"/>
<path d="M141.371 199.329L147.612 204.032L151.801 210.331L158.922 202.352L159.341 209.491L160.178 215.37L165.205 213.69L163.994 218.674" stroke="white" stroke-miterlimit="10" stroke-linejoin="round"/>
<path d="M159.34 209.491L165.204 213.69" stroke="white" stroke-miterlimit="10" stroke-linejoin="round"/>
<path d="M159.228 190.296L161.016 183.036L153.477 187.235L156.513 182.708L161.016 183.036" stroke="white" stroke-miterlimit="10" stroke-linejoin="round"/>
<path d="M159.34 189.843L162.272 191.854L159.759 192.694" stroke="white" stroke-miterlimit="10" stroke-linejoin="round"/>
<path d="M153.477 187.235L154.733 191.854L157.246 190.174" stroke="white" stroke-miterlimit="10" stroke-linejoin="round"/>
<path d="M139.654 186.815L144.261 186.395L140.077 184.296L139.654 186.815ZM139.654 186.815L136.877 184.296L133.371 187.235L134.162 184.669" stroke="white" stroke-miterlimit="10" stroke-linejoin="round"/>
<path d="M144.073 186.303L145.099 191.854L142.25 186.66L137.978 189.755" stroke="white" stroke-miterlimit="10" stroke-linejoin="round"/>
<path d="M149.288 184.296L145.099 191.854" stroke="white" stroke-miterlimit="10" stroke-linejoin="round"/>
<path d="M125.203 207.253L128.972 209.701L134.045 203.755L142.586 206.971" stroke="white" stroke-miterlimit="10"/>
<path d="M142.586 206.971L129.923 208.588" stroke="white" stroke-miterlimit="10"/>
<path d="M128.763 209.491L120.385 209.071L118.71 217.049L128.763 209.491Z" stroke="white" stroke-miterlimit="10" stroke-linejoin="round"/>
<path d="M118.71 217.049H111.589L114.111 211.574L118.71 217.049ZM118.71 217.049L116.218 210.75" stroke="white" stroke-miterlimit="10" stroke-linejoin="round"/>
<path d="M111.59 217.049L108.875 213.61L107.401 219.989L111.59 217.049Z" stroke="white" stroke-miterlimit="10" stroke-linejoin="round"/>
<path d="M104.423 215.37L107.401 219.989L100.682 216.797L97.3479 222.508L93.7959 219.481" stroke="white" stroke-miterlimit="10" stroke-linejoin="round"/>
<path d="M174.419 230.067L163.948 228.807L171.487 235.631L174.419 230.067ZM174.419 230.067C174.001 229.647 179.727 231.419 179.727 231.419L175.257 227.127L185.004 226.674" stroke="white" stroke-miterlimit="10" stroke-linejoin="round"/>
<path d="M164.488 230.189L159.34 233.846L167.533 237.974L163.948 228.807" stroke="white" stroke-miterlimit="10" stroke-linejoin="round"/>
<path d="M159.34 233.846L159.759 240.145L151.382 231.327L159.34 233.846Z" stroke="white" stroke-miterlimit="10" stroke-linejoin="round"/>
<path d="M159.759 240.145L150.125 238.465L149.288 243.975L144.68 237.205L151.382 231.327L150.125 238.465L156.019 236.206" stroke="white" stroke-miterlimit="10" stroke-linejoin="round"/>
<path d="M141.07 229.798L135.046 237.206H144.68L140.073 227.967L151.382 231.327" stroke="white" stroke-miterlimit="10" stroke-linejoin="round"/>
<path d="M135.046 237.206L128.763 233.846L131.473 247.788L135.046 237.206Z" stroke="white" stroke-miterlimit="10" stroke-linejoin="round"/>
<path d="M135.046 237.365L149.288 243.924" stroke="white" stroke-miterlimit="10" stroke-linejoin="round"/>
<path d="M120.386 247.704L129.446 237.365L115.778 233.426L120.386 247.704Z" stroke="white" stroke-miterlimit="10" stroke-linejoin="round"/>
<path d="M117.575 238.99L110.752 242.245L120.386 247.704L112.846 248.543L115.15 249.946" stroke="white" stroke-miterlimit="10" stroke-linejoin="round"/>
<path d="M110.752 242.245L112.846 248.543L106.643 251.113L110.752 242.245Z" stroke="white" stroke-miterlimit="10" stroke-linejoin="round"/>
<path d="M110.752 242.244L104.469 238.885L107.61 249.022L98.6045 248.963L100.992 253.255" stroke="white" stroke-miterlimit="10" stroke-linejoin="round"/>
<path d="M98.6048 248.963L93.0088 254.342L94.835 243.924L98.6048 248.963Z" stroke="white" stroke-miterlimit="10" stroke-linejoin="round"/>
<path d="M86.0387 255.262H76.4048L79.3369 247.703L86.0387 255.262ZM86.0387 255.262L94.835 243.924L104.469 238.885L98.6048 248.963" stroke="white" stroke-miterlimit="10" stroke-linejoin="round"/>
<path d="M79.3369 247.704L91.2035 248.606" stroke="white" stroke-miterlimit="10" stroke-linejoin="round"/>
<path d="M76.4045 255.262L73.4976 258.357L67.1895 254.422L76.4045 255.262Z" stroke="white" stroke-miterlimit="10" stroke-linejoin="round"/>
<path d="M63.4198 262.401L67.1896 254.422L61.7443 258.202L56.7179 256.522L55.5618 262.401L52.1103 259.041L53.2706 263.816L50.8537 262.821L49.6516 266.05L49.1196 263.346" stroke="white" stroke-miterlimit="10" stroke-linejoin="round"/>
<path d="M52.529 260.721L50.8535 262.821V260.654" stroke="white" stroke-miterlimit="10" stroke-linejoin="round"/>
<path d="M52.1689 258.865L56.2822 258.739L52.948 254.842L56.7179 256.522L57.9745 253.163L61.7443 258.202" stroke="white" stroke-miterlimit="10" stroke-linejoin="round"/>
<path d="M52.3573 258.857L53.061 254.972L50.8535 255.262L51.2724 252.323" stroke="white" stroke-miterlimit="10" stroke-linejoin="round"/>
<path d="M52.9479 254.842L51.2557 252.453L48.3403 254.422L50.8535 255.262" stroke="white" stroke-miterlimit="10" stroke-linejoin="round"/>
<path d="M37.0311 261.141L38.3505 259.327L39.8165 261.233L37.0311 261.141ZM37.0311 261.141L36.0048 262.636L34.2749 262.271" stroke="white" stroke-miterlimit="10" stroke-linejoin="round"/>
<path d="M42.1035 258.092L38.2876 259.461" stroke="white" stroke-miterlimit="10" stroke-linejoin="round"/>
<path d="M42.0574 258.202L45.4083 256.942L43.0249 255.858L42.0574 258.202ZM42.0574 258.202L43.5737 260.209L39.1211 260.331" stroke="white" stroke-miterlimit="10" stroke-linejoin="round"/>
<path d="M48.3404 256.522L45.8272 254.422H48.3404V256.203V257.295L45.4083 256.942L43.314 260.301" stroke="white" stroke-miterlimit="10" stroke-linejoin="round"/>
<path d="M45.8273 254.422L43.0293 255.951L43.733 252.743L45.8273 254.422ZM45.8273 254.422L45.4085 256.942" stroke="white" stroke-miterlimit="10" stroke-linejoin="round"/>
<path d="M43.7327 252.743L47.5025 249.383L43.029 247.997L43.7327 252.743ZM43.7327 252.743L38.8864 250.475L42.2667 254.8L37.0308 254.422L36.6622 257.362L34.5386 256.639L37.0308 254.422L39.121 250.332" stroke="white" stroke-miterlimit="10" stroke-linejoin="round"/>
<path d="M37.0309 254.422H34.9365L39.0163 250.538" stroke="white" stroke-miterlimit="10" stroke-linejoin="round"/>
<path d="M34.5178 256.522L34.6979 258.197L33.2612 258.202L34.5178 257.362" stroke="white" stroke-miterlimit="10" stroke-linejoin="round"/>
<path d="M32.0045 257.782L29.9102 259.461L31.9249 259.306V258.512V257.861L33.2611 258.202" stroke="white" stroke-miterlimit="10" stroke-linejoin="round"/>
<path d="M29.9102 259.461L28.8463 260.482L28.5112 259.461" stroke="white" stroke-miterlimit="10" stroke-linejoin="round"/>
<path d="M28.4106 259.508L27.397 260.301L28.7709 260.507" stroke="white" stroke-miterlimit="10" stroke-linejoin="round"/>
<path d="M27.3968 260.301L26.1109 261.485L24.98 261.112" stroke="white" stroke-miterlimit="10" stroke-linejoin="round"/>
<path d="M16.1378 250.089L14.4121 247.284L17.2437 246.956L15.476 251.97L16.5064 254.002L19.4385 249.505V252.323L23.4932 251.823L24.0461 254.422L28.6536 253.163L28.2347 254.842L31.2799 255.859L32.4151 253.217L34.9366 254.422" stroke="white" stroke-miterlimit="10" stroke-linejoin="round"/>
<path d="M19.4385 252.323L21.5328 256.942L24.046 254.422L19.4385 252.323Z" stroke="white" stroke-miterlimit="10" stroke-linejoin="round"/>
<path d="M19.4385 252.323L20.1464 258.579L21.5328 256.942L26.421 257.425L24.046 254.632" stroke="white" stroke-miterlimit="10" stroke-linejoin="round"/>
<path d="M28.2348 254.842L26.1865 257.483" stroke="white" stroke-miterlimit="10" stroke-linejoin="round"/>
<path d="M3.94038 247.704V249.408L6.03472 249.383L8.54792 251.483L11.48 254.002L11.2077 249.27L8.54792 251.483L7.8526 247.515L6.03472 249.383L4.99173 246.372L3.94038 247.704ZM3.94038 247.704L1.0083 246.024" stroke="white" stroke-miterlimit="10" stroke-linejoin="round"/>
<path d="M6.03516 249.383L6.74723 251.785L8.54836 251.483" stroke="white" stroke-miterlimit="10" stroke-linejoin="round"/>
<path d="M16.5064 254.002L12.6989 255.262L11.48 254.002" stroke="white" stroke-miterlimit="10" stroke-linejoin="round"/>
<path d="M16.276 254.078L18.2321 256.996L19.8741 256.165L16.5064 254.002H11.48L15.6687 251.903L19.3086 249.707" stroke="white" stroke-miterlimit="10" stroke-linejoin="round"/>
<path d="M84.7818 228.807L86.4573 224.608L77.2422 225.868" stroke="white" stroke-miterlimit="10" stroke-linejoin="round"/>
<path d="M79.7554 229.647L77.2422 225.868L84.7818 228.807L79.7554 229.647Z" stroke="white" stroke-miterlimit="10" stroke-linejoin="round"/>
<path d="M73.0536 238.045L76.4045 233.846L67.1895 233.006" stroke="white" stroke-miterlimit="10" stroke-linejoin="round"/>
<path d="M76.4042 233.846L73.0532 228.933L79.7551 229.647L76.4042 233.846Z" stroke="white" stroke-miterlimit="10" stroke-linejoin="round"/>
<path d="M88.9707 221.668L91.0651 227.967L86.4575 224.608L88.8409 221.408L97.3481 222.508L104.636 218.674" stroke="white" stroke-miterlimit="10" stroke-linejoin="round"/>
<path d="M91.0649 227.967L93.0085 221.945L95.6725 227.967L97.348 222.508L101.118 225.868L95.6725 227.967" stroke="white" stroke-miterlimit="10" stroke-linejoin="round"/>
<path d="M91.7437 225.868L95.6726 227.967" stroke="white" stroke-miterlimit="10" stroke-linejoin="round"/>
<path d="M140.701 210.541L136.512 213.06L142.376 213.9L140.701 210.541Z" stroke="white" stroke-miterlimit="10"/>
<path d="M142.586 213.69L141.329 219.149L138.971 213.413" stroke="white" stroke-miterlimit="10" stroke-linejoin="round"/>
<path d="M146.775 214.53L144.68 215.79L148.031 217.049L146.775 214.53Z" stroke="white" stroke-miterlimit="10" stroke-linejoin="round"/>
<path d="M121.642 219.149L118.71 225.448L115.778 222.088L121.642 219.149Z" stroke="white" stroke-miterlimit="10" stroke-linejoin="round"/>
<path d="M62.1631 251.063L67.1895 246.444L65.9329 251.063H62.1631Z" stroke="white" stroke-miterlimit="10" stroke-linejoin="round"/>
<path d="M65.9326 251.063L69.2836 248.543L66.7662 247.997" stroke="white" stroke-miterlimit="10" stroke-linejoin="round"/>
<path d="M79.7557 238.885L77.2425 237.206L76.4048 241.825L79.7557 238.885Z" stroke="white" stroke-miterlimit="10" stroke-linejoin="round"/>
<path d="M255.68 86.034L255.261 88.5535L259.45 86.8738L255.68 86.034Z" stroke="white" stroke-miterlimit="10" stroke-linejoin="round"/>
<path d="M265.314 102.411L263.638 99.8914C263.638 99.8914 258.612 106.19 259.45 105.35C260.287 104.51 265.314 102.411 265.314 102.411Z" stroke="white" stroke-miterlimit="10" stroke-linejoin="round"/>
<path d="M244.79 114.589L242.695 110.809L241.857 115.428L244.79 114.589Z" stroke="white" stroke-miterlimit="10" stroke-linejoin="round"/>
<path d="M244.79 114.589L246.046 117.108L243.324 115.428L242.695 118.368L237.25 115.848L241.858 115.428" stroke="white" stroke-miterlimit="10" stroke-linejoin="round"/>
<path d="M168.974 203.612L165.205 205.711H170.65L168.974 203.612Z" stroke="white" stroke-miterlimit="10" stroke-linejoin="round"/>
</svg>
