<?xml version="1.0" encoding="utf-8"?>
<!-- Generator: Adobe Illustrator 23.0.1, SVG Export Plug-In . SVG Version: 6.00 Build 0)  -->
<svg version="1.1" id="DIGITAL" xmlns="http://www.w3.org/2000/svg" xmlns:xlink="http://www.w3.org/1999/xlink" x="0px" y="0px"
	 viewBox="0 0 1366 768" style="enable-background:new 0 0 1366 768;" xml:space="preserve">
<style type="text/css">
	.st0{opacity:0.08;fill:#9AEADB;stroke:#FFFFFF;stroke-miterlimit:10;}
	.st1{fill:none;stroke:#FFFFFF;stroke-linejoin:round;stroke-miterlimit:10;}
	.st2{fill:none;stroke:#FFFFFF;stroke-miterlimit:10;}
</style>
<path class="st0" d="M487.66,569.54c89.83-30.13,141.73-63.78,141.73-63.78s-29.52,34.25-57.23,44.11S487.66,569.54,487.66,569.54z"
	/>
<path class="st1" d="M629.71,486.27l-0.1-0.02h-0.02c-0.85-0.35-1.32-0.51-1.32-0.51c-0.64-0.64-1.84-0.94-3.3-1.03l-3.06-1.51
	c0.56-0.09,4.34-1.6,4.58-1.69l0.01-0.01L629.71,486.27z"/>
<path class="st1" d="M619.16,480.82c-1.54,0-2.68,0.51-3.51,1.32l-0.04-0.07l-0.03,0.11l-4.08,2.32l2-6l-1.41-1.41l4.41,1.41
	L619.16,480.82z"/>
<path class="st1" d="M740.5,547.5l-10.23,0.02c5.46,1.67,11.24,3.22,17.36,4.61L740.5,547.5z M1033.48,143.38
	c0,0,45.6-49.51,45.6-50.81c0,0-62.51,42.97-74.26,49.5c0.92-1.03,59.98-66.55,67.74-80.77c0,0-49.51,37.78-84.69,75.56l1.31-6.51
	c0,0,41.68-39.08,65.13-96.39c-1.19,1.52-76.92,99.03-84.68,102.9l2.61-6.51c0,0,52.12-71.66,50.81-113.35
	c0,0-42.99,96.41-63.84,114.65c0,0,33.88-49.51,27.36-114.65c0,0-14.33,76.85-48.19,132.87c0.56-1.31,24.54-57.72,7.8-93.78
	c0,0,6.52,65.14-37.78,131.59c0,0-65.14,83.38-80.78,102.92c0,0-58.34,86.12-83.68,118.62L744,427l-6.08-10.35l-7.42,12.85l-5-2.97
	c-8.36,5.72-21.49,14.88-32.07,23.02c0,0-7.82,0-19.55,3.91h-33.87c0,0-0.97,0.33-2.62,0.93c-1.98,0.74-4.93,1.88-8.32,3.37
	c-1.53,0.67-3.16,1.41-4.83,2.22c-2.21,1.07-4.49,2.25-6.73,3.52h5.99l-3,4l-3,2l-3-1l-2,4l-2.94-2.94
	c-0.91,1.38-1.43,2.92-1.66,4.53l0.12,0.08l3.48,2.33l0.59,0.59l4.41,1.41l2.66,2.32c-1.54,0-2.68,0.51-3.51,1.32l-0.04-0.07
	l-0.03,0.11l-4.08,2.32l-2.57-1.29c1.73,5.59,4.77,10.27,5.01,10.62c-0.06-0.34-0.78-4.24-0.15-7.67c0.09-0.02,0.26-0.06,0.5-0.12
	c1.72-0.4,6.99-1.55,10.68-1.33l-3.06-1.51c0.56-0.09,4.34-1.6,4.58-1.69l0.01-0.01l7,3l6,3l-9.69-1.22l-0.1-0.01l-0.1-0.02
	c0.04,0.03,0.09,0.04,0.13,0.06c2.12,0.89,6.38,2.89,11.69,6.54c2.78,1.92,5.86,4.28,9.07,7.16c2.4,2.16,4.88,4.61,7.37,7.39
	c0.54,0.6,1.08,1.22,1.62,1.85c0,0,13.68,14.28,42.49,27.55h0.01l0.01,0.01c4.86,2.24,10.15,4.45,15.88,6.55l8.62-3.86l13.33,7.62
	h0.01l13.66,1.38l2.84,1.78l7.76,4.88c2.64,0.17,8,0.45,14.41,0.48c5.08,0.04,10.82-0.08,16.4-0.54c0,0,6.52-3.89,31.27-2.54
	c0,0,35.14,22.21,61.18,31.38l7.82,0.01c0,0,2.62-9.11,11.73-3.88l16.94,0.03c0,0-3.91-2.61,7.82-2.59l11.72,0.02
	c0,0-1.29-6.52,9.14-6.5l-3.89-9.13l5.21,0.01l-7.8-11.74c0,0,9.12-1.28,11.74-6.49c0,0,1.3-1.3-3.9-3.91l-87.24-28.83
	c0,0-10.41-9.14-10.38-26.08c0,0,13.04-2.58,7.85-15.62c0,0,7.81,2.62,14.35-11.7c0,0,10.43-1.28,11.75-11.7
	c0,0,9.11,5.23,14.36-14.31c0,0,3.9,3.92,10.45-13c0,0,6.51,2.61,10.44-13.01c0,0,9.12,1.32,11.76-16.92c0,0,7.81,5.23,9.15-13.01
	c0,0,5.01,4.91,11.53-18.54c0,0,7.82,13.03,11.72-13.03c0,0,6.52,1.3,9.12-16.94c0,0-5.21-11.72-3.9-19.54
	c0,0,11.72,15.64,16.93,11.73c5.21-3.91,2.61-10.43,0-16.94c0,0,14.33-10.42-3.91-22.15c0,0-1.3-2.61,1.31-3.91
	c0,0-7.8-1.3-14.31-7.81c0.63,0.47,15.88,11.48,28.64-0.01c0,0,5.21-9.12,1.3-14.33c0,0,7.82,0,7.82-18.24
	c0,0,11.73-7.81,9.12-19.54c0,0,22.15-19.54,5.21-28.66c0,0,15.64-16.94,13.03-26.06c0,0,18.24-19.54,18.24-29.97
	C1058.23,131.65,1046.5,135.56,1033.48,143.38z M767.23,554.48l-2.94,0.64l2.21-5.62l6.2,3.79L767.23,554.48z"/>
<path class="st1" d="M730.27,547.52c-4.34-1.32-8.47-2.71-12.39-4.16l8.62-3.86v4L730.27,547.52z"/>
<path class="st1" d="M615.26,464.83l-0.76,3.67l-2,4l-2.94-2.94c0.75-1.15,1.76-2.18,3.09-3.07
	C613.5,465.92,614.37,465.37,615.26,464.83z"/>
<path class="st1" d="M617.5,463.51v5.99l-3-1l0.76-3.67C616,464.38,616.75,463.94,617.5,463.51z"/>
<path class="st0" d="M747.51,421.41c106.4-123.91,153.54-219.53,153.54-219.53s-25.84,82.84-58.16,121.9
	C810.56,362.84,747.51,421.41,747.51,421.41z"/>
<g id="digital">
	<path class="st2" d="M856.28,484.73"/>
	<polyline class="st1" points="843.26,482.13 829.61,479.55 843.26,450.86 843.41,482.65 853.68,470.4 856.28,484.73 	"/>
	<polygon class="st1" points="800.26,473.01 813.29,443.04 786.05,469.8 	"/>
	<polyline class="st1" points="787.08,470.03 771.8,466.6 768.99,476.91 785.93,470.4 785.93,469.8 785.93,446.95 813.29,443.04 
		822.41,450.86 	"/>
	<polygon class="st1" points="768.99,476.91 762.48,482.13 768.99,489.94 	"/>
	<path class="st1" d="M768.5,489.5l23,7l-13,9c0,1-37,11-37,11l27.49-26.56l19.54-6.51l-19.54-6.51"/>
	<polyline class="st1" points="785.93,470.4 788.53,483.43 791.14,496.46 800.26,473.01 830.23,479.52 	"/>
	<polyline class="st1" points="856.28,484.73 848.47,491.25 856.78,491.25 	"/>
	<polygon class="st1" points="848.47,491.25 844.56,497.76 849.77,504.28 	"/>
	<polyline class="st1" points="856.78,491.25 849.77,504.28 859.1,499.53 	"/>
	<path class="st1" d="M859.1,499.53c0,0-1.83-4.37-2.32-8.28"/>
	<polyline class="st1" points="856.28,485.31 843.26,482.13 848.47,491.25 	"/>
	<path class="st1" d="M814.59,467.79l-14.1,5.24l21.91-22.18L814.59,467.79l15.63,11.73l-7.82-28.66h21.5l9.77,19.54l10.42-1.3
		c0,0,5.21,13.03-7.82,15.63"/>
	<path class="st1" d="M856.28,484.73c0,0-0.88,6.14,2.82,14.79"/>
	<polyline class="st1" points="813.29,443.04 822.41,427.41 822.41,450.86 	"/>
	<polygon class="st1" points="843.26,450.86 822.41,427.41 856.28,433.92 	"/>
	<polyline class="st1" points="853.68,470.4 856.28,433.92 864.1,469.1 	"/>
	<polyline class="st1" points="822.41,427.41 884.95,419.59 856.28,433.92 877.13,445.65 864.1,470.4 	"/>
	<polygon class="st1" points="877.13,445.65 884.95,419.59 898.93,443.5 	"/>
	<line class="st1" x1="877.13" y1="445.65" x2="888.97" y2="450.15"/>
	<polyline class="st1" points="938.37,388.32 914.91,396.14 877.13,400.05 884.95,419.59 914.91,396.14 924.18,409.8 884.95,419.59 
		856.28,400.05 855.63,423.25 	"/>
	<polyline class="st2" points="800.26,473.01 804.17,483.43 794.43,487.99 	"/>
	<polyline class="st1" points="819.8,487.34 836.74,487.34 837.79,481.1 819.8,487.34 822.41,477.82 804.17,483.43 820.5,487.5 	"/>
	<polyline class="st1" points="783.5,516.5 791.5,496.5 819.8,487.34 827.62,493.85 836.74,487.34 843.85,482.13 	"/>
	<polyline class="st1" points="938.37,388.32 938.37,366.17 914.91,396.14 884.95,381.8 938.37,366.17 951.3,373.36 	"/>
	<polyline class="st1" points="957.91,357.05 938.37,366.17 873.22,358.35 884.95,381.8 	"/>
	<polyline class="st1" points="873.22,358.35 899.28,347.93 938.37,366.17 	"/>
	<polyline class="st1" points="937.06,353.14 940.97,321.87 912.31,319.27 	"/>
	<polygon class="st1" points="948.77,354.53 940.97,321.87 964.42,342.72 	"/>
	<polyline class="st1" points="914.08,343.83 912.31,319.27 937.11,352.97 878.43,329.69 899.28,347.93 957.91,355.75 
		964.42,342.72 967.69,353.14 	"/>
	<polyline class="st1" points="976.15,337.51 947.49,304.94 964.42,342.72 975.9,338.2 	"/>
	<polyline class="st1" points="908.4,271.06 947.49,304.94 940.97,321.87 908.4,271.06 912.31,319.27 	"/>
	<polyline class="st1" points="974.85,307.54 947.49,304.94 974.85,273.67 974.85,307.54 	"/>
	<polyline class="st1" points="974.85,307.54 985.27,306.24 986.65,318.94 	"/>
	<polyline class="st1" points="994.78,312.59 985.27,306.24 996.44,289.23 	"/>
	<path class="st1" d="M985.27,306.24l-10.42-32.57l-39.2,21.01c1.42-0.16,10.54-24.92,10.54-24.92l-25.98,11.53"/>
	<polyline class="st1" points="987.92,277.37 974.85,273.67 969.63,254.12 964.42,279.25 946.18,269.76 	"/>
	<polyline class="st1" points="964.42,278.88 960.51,238.49 969.63,254.12 990.86,273.66 	"/>
	<polyline class="st1" points="993.57,273.67 999.6,252.82 1005.96,261.82 	"/>
	<line class="st1" x1="999.6" y1="252.82" x2="1012.44" y2="240.44"/>
	<polyline class="st1" points="1018.58,229.94 1004.81,226.76 999.6,252.82 969.63,254.12 1004.81,226.76 960.51,238.49 
		947.49,192.89 983.03,232.53 993.09,185.07 1019.14,145.98 983.97,159.01 993.09,185.07 965.73,213.23 983.97,159.01 
		947.49,192.89 	"/>
	<polyline class="st1" points="1030.35,206.02 1004.81,226.76 988.65,206.02 1030.35,206.02 	"/>
	<line class="st1" x1="993.09" y1="185.07" x2="1025.75" y2="206.02"/>
	<polyline class="st1" points="1033.11,180.02 1004.6,192.46 1002.74,170.58 1033.11,180.02 	"/>
	<polyline class="st1" points="1016.19,174.76 1019.14,145.98 1028.26,157.71 1017.06,166.31 1033.11,180.02 	"/>
	<polyline class="st1" points="1034.34,142.44 1028.26,157.71 1026.98,174.78 	"/>
	<polyline class="st1" points="1034.34,142.44 1019.14,145.98 1033.11,123.79 1034.34,142.44 	"/>
	<polyline class="st1" points="1037.08,173.74 1028.26,157.71 1044.34,156.62 	"/>
	<line class="st1" x1="1034.34" y1="142.44" x2="1044.34" y2="156.62"/>
	<polyline class="st1" points="1044.34,156.62 1047.81,142.08 1055.48,140.53 	"/>
	<polyline class="st1" points="1054.78,132.93 1047.81,142.08 1038.66,148.57 	"/>
	<line class="st1" x1="1047.81" y1="142.08" x2="1034.34" y2="142.44"/>
	<path class="st1" d="M908.81,187.05"/>
	<polyline class="st1" points="1033.11,123.79 1043.9,122.53 1034.34,142.44 	"/>
	<polyline class="st1" points="1046.72,128.94 1043.9,122.53 1063.03,111 	"/>
	<line class="st1" x1="1063.03" y1="111" x2="1043.9" y2="116.53"/>
	<line class="st1" x1="1063.03" y1="111" x2="1067.86" y2="100.25"/>
	<polyline class="st1" points="1004.81,142.08 1017.84,116.02 1030.35,113.26 	"/>
	<polyline class="st1" points="1042.35,99.41 1034.78,102.99 1047.81,81.22 1046.72,94.3 	"/>
	<line class="st1" x1="1047.81" y1="81.22" x2="1063.82" y2="73.55"/>
	<polyline class="st1" points="1034.78,102.99 1022.09,103.51 1017.84,116.02 1034.78,102.99 1033.11,110.11 	"/>
	<polyline class="st1" points="1017.84,116.02 995.69,136.86 1004.81,142.08 	"/>
	<polyline class="st1" points="995.69,136.86 989.59,154.45 986.57,138.17 995.69,136.86 1016.19,108.9 	"/>
	<polyline class="st1" points="1002.74,115.95 1011.33,97.78 991.08,113.26 997.88,121.38 977.68,128.94 968.33,138.17 
		983.97,159.01 977.68,128.94 987.92,137.98 	"/>
	<polyline class="st1" points="976.15,116.02 975.03,126.39 971.02,120.79 969.72,118.97 968.33,138.17 961.96,128.94 955.3,143.38 
		976.15,148.59 967.53,159.98 942.27,153.8 947.98,132.49 955.3,143.38 968.33,160.32 	"/>
	<polyline class="st1" points="970.94,121.23 976.09,116.53 977.36,107.07 988.57,105.62 	"/>
	<polyline class="st1" points="988.57,105.62 990.48,95.17 996.56,92.11 	"/>
	<polyline class="st1" points="977.36,107.07 990.48,95.17 990.48,83.81 997.36,90.7 	"/>
	<polyline class="st1" points="990.48,83.81 1002.21,75.63 1000.58,84.85 	"/>
	<polygon class="st1" points="1002.21,75.63 1001.05,63.31 1006.11,62.6 	"/>
	<line class="st1" x1="942.27" y1="153.8" x2="938.37" y2="149.89"/>
	<line class="st1" x1="938.37" y1="149.89" x2="932.46" y2="140.53"/>
	<polyline class="st1" points="932.46,140.53 938.37,138.17 938.37,149.89 	"/>
	<polyline class="st1" points="945.56,128.94 938.37,138.17 938.37,123.79 	"/>
	<line class="st1" x1="938.37" y1="123.79" x2="945.56" y2="128.94"/>
	<polyline class="st1" points="945.56,128.94 944.88,112.11 940.32,125.19 	"/>
	<polyline class="st1" points="943.36,100.25 944.88,112.11 950.02,109.5 	"/>
	<line class="st1" x1="950.02" y1="109.5" x2="943.36" y2="98.87"/>
	<polyline class="st1" points="943.36,100.25 952.02,91.02 944.63,92.02 	"/>
	<polyline class="st1" points="952.02,91.02 948.79,75.63 950.95,71.94 	"/>
	<polyline class="st1" points="944.63,92.02 948.79,75.63 946.49,62.6 	"/>
	<line class="st1" x1="947.98" y1="132.49" x2="960.94" y2="128.94"/>
	<polyline class="st1" points="960.94,128.94 963.12,113.41 954.46,130.71 	"/>
	<polyline class="st1" points="950.41,127.6 963.12,113.41 963.12,97.78 	"/>
	<polyline class="st1" points="963.12,113.41 968.33,105.6 963.12,97.78 	"/>
	<polyline class="st1" points="966.69,118.53 968.33,105.6 978.58,89.35 	"/>
	<line class="st1" x1="978.58" y1="89.35" x2="963.57" y2="96.86"/>
	<polyline class="st1" points="978.58,89.35 972.64,70.7 964.04,95.63 	"/>
	<polyline class="st1" points="972.64,70.7 977.45,73.02 978.58,89.35 	"/>
	<line class="st1" x1="977.45" y1="73.02" x2="984.89" y2="63.32"/>
	<line class="st1" x1="984.89" y1="63.32" x2="972.83" y2="70.09"/>
	<polyline class="st1" points="984.89,63.32 980.06,53.48 973.13,69.11 	"/>
	<polyline class="st1" points="981.54,39.24 980.06,53.48 987.87,33.94 981.54,39.24 	"/>
	<line class="st1" x1="987.87" y1="33.94" x2="985.09" y2="24.18"/>
	<path class="st2" d="M613.95,493.85c0,0,0-0.01-0.01-0.02"/>
	<path class="st2" d="M938.38,149.87c0,0.01-0.01,0.01-0.01,0.02"/>
	<path class="st2" d="M1054.32,33.94c0,0.01-0.01,0.01-0.01,0.02"/>
	<path class="st2" d="M1004.82,142.07c0,0.01-0.01,0.01-0.01,0.01"/>
	<path class="st2" d="M974.87,268.46c-0.01,0-0.01,0-0.02-0.01"/>
	<polyline class="st1" points="854.98,517.3 861.5,527.73 859.1,499.53 854.98,517.3 849.77,504.28 	"/>
	<path class="st1" d="M869.31,519.91l12.64-3.91l-15.24-5.21L869.31,519.91l-8.8-3.73l6.19-5.39c0,0-5.21-3.91-7.82-11.73
		c0,0-2.61-6.51-2.61-14.33c0,0,13.03-1.3,7.82-15.63c0,0,9.12,2.61,14.33-11.73c0,0,10.42-1.3,11.73-11.73
		c0,0,9.12,6.51,14.33-14.33"/>
	<polygon class="st1" points="882.34,516 887.55,534.24 892.21,519.39 	"/>
	<polyline class="st1" points="887.55,534.24 894.07,542.06 892.76,519.91 	"/>
	<polyline class="st1" points="894.07,542.06 903.19,535.54 892.76,519.91 	"/>
	<polyline class="st1" points="912.17,530.98 914.91,551.18 903.19,535.54 918.14,527.95 892.76,519.91 	"/>
	<path class="st1" d="M895.37,583.75l-24.75-15.63l28.8,10.79C899.42,578.9,896.67,579.84,895.37,583.75z"/>
	<polyline class="st1" points="884.95,567.46 882.34,556.39 899.28,578.54 878.43,562.9 870.62,568.12 887.55,583.75 	"/>
	<path class="st1" d="M907.1,579.84"/>
	<polyline class="st1" points="920.13,579.84 907.1,579.84 912.31,575.93 896.67,561.6 899.57,578.84 	"/>
	<path class="st1" d="M907.1,579.84"/>
	<polyline class="st1" points="882.34,556.39 896.67,561.6 914.91,551.18 929.25,547.27 913.06,537.55 917.52,528.27 	"/>
	<polyline class="st1" points="912.31,575.93 914.91,551.18 917.52,573.33 	"/>
	<polyline class="st1" points="917.52,573.33 943.58,577.24 925.45,577.91 917.52,573.33 920,580.09 912.31,575.93 917.52,573.33 	
		"/>
	<polyline class="st1" points="924.39,559.42 929.25,547.27 943.58,577.24 915.38,551.05 	"/>
	<path class="st1" d="M952.7,570.72c0,0-10.42-1.3-9.12,6.51"/>
	<polyline class="st1" points="952.53,571.03 948.79,561.6 944.09,569.06 	"/>
	<polyline class="st1" points="952.7,570.72 939.22,568.12 948.64,561.9 929.25,547.27 	"/>
	<polygon class="st1" points="948.79,561.6 954,561.6 946.18,549.88 	"/>
	<path class="st1" d="M946.18,549.88l-6.16,5.53l-0.35-13.34l6.38,8.12c10.29-1,11.82-7.27,11.82-7.27l-18.2-0.84l-1.8-7.58
		l16.13,4.98"/>
	<path class="st1" d="M954,539.45c0,0,3.91,2.61,3.91,3.91"/>
	<line class="st1" x1="938.37" y1="534.24" x2="920.57" y2="542.06"/>
	<polyline class="st1" points="931.85,548.57 939.67,542.06 921.43,542.06 917.52,527.73 	"/>
	<line class="st1" x1="917.52" y1="527.73" x2="937.87" y2="534.47"/>
	<path class="st1" d="M899.91,578.73c0,0,3.28-1.49,7.19,1.12"/>
	<path class="st1" d="M919.91,579.84h4.13c0,0-2.03-1.04,0.94-1.82"/>
	<polyline class="st1" points="885.68,577.63 887.55,583.75 895.37,583.75 	"/>
	<polygon class="st1" points="1011.33,97.78 1025.75,86.26 1011.33,88.41 	"/>
	<polygon class="st1" points="1037.86,67.15 1020.44,87.05 1025.75,70.32 	"/>
	<polyline class="st1" points="1025.93,70.09 1034.78,61.3 1035.92,67.66 	"/>
	<line class="st1" x1="1034.78" y1="61.3" x2="1042.97" y2="58"/>
	<polyline class="st1" points="1042.79,58.08 1042.52,49.05 1046.55,51.07 1049.02,40.74 	"/>
	<polyline class="st1" points="1006.11,62.6 1008.29,48.58 1017.32,47.67 1006.11,62.6 1010.11,65.7 1002.21,75.63 	"/>
	<polyline class="st1" points="1017.84,48.27 1017.84,33.94 1022.7,25.09 	"/>
	<line class="st1" x1="1017.84" y1="33.94" x2="1017.32" y2="29.54"/>
	<line class="st1" x1="1017.84" y1="33.94" x2="1011.82" y2="41.24"/>
	<path class="st1" d="M904.58,431.53"/>
	<polygon class="st1" points="908.81,209.39 887.65,214.22 894.5,236.5 	"/>
	<polyline class="st1" points="843.08,271.06 869.5,265.5 862.26,246.63 894.5,236.5 916.5,216.5 913.5,235.5 894.5,236.5 
		898.72,200.05 916.5,216.5 908.5,187.5 908.4,187.68 930.55,175.95 916.99,173.74 930.55,175.95 920.95,166.45 942.27,153.8 
		939.67,161.62 983.97,159.01 1004.81,142.08 964.32,177.25 939.67,161.62 947.49,192.89 931.85,202.01 942.96,174.78 
		930.55,175.95 939.67,161.62 920.95,166.45 938.37,149.89 	"/>
	<polyline class="st1" points="884.95,239.5 869.5,265.5 872.5,278.5 849.27,269.76 849.5,290.5 836.62,279.25 	"/>
	<polyline class="st1" points="843.5,300.5 830.8,286.44 843.12,284.8 843.39,300.41 849.49,290.47 873.61,278.71 	"/>
	<path class="st2" d="M744.5,427.5l-14,2l-7.87-1l-2.13,5l-3.8-0.88l5.8-4.12l3-1.97c5.01-3.44,8.31-5.64,8.31-5.64
		c0.94-0.73,2.34-2.19,4.11-4.24c1.69-1.96,3.72-4.47,6.02-7.43"/>
	<polyline class="st1" points="746.5,439.5 733.5,439.5 739.67,428.19 746.5,439.5 744.5,427.5 757.5,430.5 743.94,417.88 	"/>
	<polyline class="st1" points="743.5,409.5 751.5,413.5 744.5,418.4 	"/>
	<line class="st1" x1="749.52" y1="412.51" x2="748.45" y2="403.34"/>
	<polyline class="st1" points="748.85,406.74 756.5,400.5 752.48,397.94 	"/>
	<polygon class="st1" points="756.93,391.9 756.5,400.5 773.5,397.5 	"/>
	<polyline class="st1" points="818.85,303.48 815.5,318.5 813.29,311.6 	"/>
	<path class="st1" d="M806.23,321.87"/>
	<polygon class="st1" points="815.5,318.5 806.41,321.87 809.5,330.5 	"/>
	<polyline class="st1" points="802.84,337.16 800.61,330.03 808.68,328.2 	"/>
	<polygon class="st1" points="819,360 811,364 813,375 	"/>
	<polyline class="st1" points="821.5,371.5 826.5,379.5 814.4,371.5 821.5,371.5 818.25,361.88 	"/>
	<polyline class="st1" points="826.06,379.21 815.5,385.5 814.5,371.5 	"/>
	<polygon class="st1" points="824.58,369.16 826.22,372.37 830.77,367.86 	"/>
	<polyline class="st1" points="830.5,367.5 830.5,361.5 827.67,368.51 	"/>
</g>
<polyline class="st1" points="835.54,291.69 830.5,300.5 830.5,286.5 "/>
<path class="st1" d="M826.5,307.5l4-7l-8.09-2.24L826.5,307.5l-8.65,0.47c-0.35-0.47,9.65,16.53,9.65,16.53l-11.83-6.76"/>
<polyline class="st1" points="802.5,337.5 796.5,345.5 807.61,344.52 "/>
<polyline class="st1" points="796.5,345.5 794.5,366.5 788.74,350.92 "/>
<polyline class="st1" points="788.5,370.5 786.5,383.5 778.99,364.03 788.5,370.5 785.68,361.21 "/>
<polyline class="st1" points="815.5,334.5 827.5,324.5 814.4,320.7 815.5,334.5 809.5,330.5 802.5,337.5 812.31,332.37 810.5,348.5 
	802.5,337.5 792.53,341.68 796.5,345.5 783.57,354.53 794.5,366.5 "/>
<polygon class="st1" points="773.5,397.5 776.5,387.5 783.5,388.5 "/>
<polyline class="st1" points="758.7,392.5 776.5,387.5 767.6,377.12 "/>
<polyline class="st1" points="776.01,386.93 776.01,365.28 788.56,360 "/>
<polygon class="st1" points="783.5,388.5 788.5,386.5 786.5,383.5 "/>
<line class="st1" x1="776.01" y1="386" x2="786.5" y2="383.5"/>
<polyline class="st1" points="758.5,525.5 783.5,516.5 778.5,505.5 "/>
<polyline class="st2" points="800.5,493.85 808.5,505.5 820.5,487.5 "/>
<polyline class="st2" points="791.5,496.5 808.5,505.5 783.5,516.5 "/>
<polyline class="st1" points="741.5,516.5 738.5,528.5 711.5,523.5 741.5,516.5 758.5,525.5 778.5,505.5 768.5,489.5 "/>
<path class="st1" d="M701.99,536.8c0.02-0.01,0.1-0.02,0.23-0.02c-0.12,0.02-0.19,0.03-0.22,0.03L701.99,536.8z"/>
<path class="st1" d="M738.5,528.5l-12,11c0,0-21.77-2.72-24.28-2.72C705.32,536.21,738.5,528.5,738.5,528.5z"/>
<path class="st1" d="M711.5,523.5"/>
<polygon class="st1" points="740.5,547.5 730.27,547.52 726.5,543.5 726.5,539.5 739.83,547.12 739.84,547.12 "/>
<polyline class="st1" points="758.77,525.4 738.5,528.5 739.83,547.12 "/>
<path class="st1" d="M764.1,555.16c-1.13-0.07-1.76-0.12-1.76-0.12c-5.1-0.86-10.01-1.83-14.71-2.91l-7.13-4.63l-0.66-0.38
	l13.66,1.38L764.1,555.16z"/>
<line class="st1" x1="764.29" y1="555.12" x2="764.1" y2="555.16"/>
<polyline class="st1" points="772.7,553.29 772.71,553.29 785.5,550.5 778.51,555.64 778.5,555.65 "/>
<polyline class="st1" points="753.5,548.5 746.73,544.58 739.68,540.51 739.35,540.32 752.06,530.49 752.06,530.48 758.5,525.5 "/>
<polygon class="st1" points="798.15,553.97 785.5,550.5 813.5,544.5 "/>
<polygon class="st1" points="772.7,553.29 767.23,554.48 764.29,555.12 766.5,549.5 "/>
<line class="st1" x1="772.71" y1="553.29" x2="772.7" y2="553.29"/>
<line class="st1" x1="766.5" y1="549.5" x2="756.34" y2="550.28"/>
<polyline class="st1" points="746.73,544.58 754.5,541.5 739.5,540.5 "/>
<line class="st1" x1="748.12" y1="541.07" x2="752.06" y2="530.48"/>
<polyline class="st1" points="793.5,544.5 808.5,542.5 799.5,547.5 791.5,543.5 785.5,550.5 "/>
<path class="st1" d="M870.5,568.5l-14-2l9-10c0,0-22-1-23-1s14,11,14,11l-3.88,1.62"/>
<polyline class="st1" points="857.94,566.71 870.04,576.71 870.5,568.5 865.5,556.5 878.5,563.5 "/>
<polyline class="st1" points="841.5,544.5 826.5,543.5 826,552.55 841.5,544.5 842.5,555.5 843.42,562.79 "/>
<polygon class="st1" points="826.5,543.5 817.18,552.31 813.5,544.5 825.5,531.5 "/>
<line class="st1" x1="826.5" y1="543.5" x2="813.5" y2="544.5"/>
<polygon class="st1" points="825.5,531.5 817.5,519.5 817.5,534.5 "/>
<polyline class="st1" points="817.5,519.5 806.5,515.5 817.5,527.73 "/>
<polyline class="st1" points="733.5,453.5 721.47,444.19 707.5,439.5 "/>
<polyline class="st1" points="740,446.5 758.5,448.5 746.5,439.5 733.5,453.5 733.5,439.5 721.5,444.5 720.5,433.5 707.5,439.13 
	701.5,450.5 721.75,444.4 "/>
<polyline class="st1" points="661.5,453.46 661.5,458.5 673.5,453.5 683.5,460.5 698.5,473.5 694.28,454.51 "/>
<polygon class="st1" points="648.87,458.02 638.46,458.02 646.5,466.5 "/>
<polyline class="st1" points="624.24,459.98 635.5,460.5 629.07,457.76 "/>
<path class="st1" d="M613.5,478.5l-2,6l-2.57-1.29c-0.3-0.96-0.56-1.95-0.75-2.95L613.5,478.5z"/>
<line class="st1" x1="615.65" y1="482.14" x2="615.58" y2="482.18"/>
<line class="st1" x1="613.5" y1="485.5" x2="611.5" y2="484.5"/>
<path class="st1" d="M613.5,478.5l-5.32,1.76c-0.41-2.07-0.57-4.17-0.28-6.17l0.12,0.08l3.48,2.33l0.59,0.59L613.5,478.5z"/>
<polygon class="st1" points="623.5,463.5 620.5,467.5 617.5,469.5 617.5,463.5 "/>
<polyline class="st1" points="623.5,463.5 624.5,460.5 628.5,464.5 635,460.48 "/>
<path class="st1" d="M614.29,486.04l6.21-3.54l1.36,0.67c-0.04,0.03-0.02,0.04,0.05,0.03l-0.05-0.03"/>
<polygon class="st1" points="629.81,486.28 629.74,486.31 629.71,486.27 "/>
<polygon class="st1" points="639.5,487.5 629.81,486.28 629.71,486.27 626.5,481.5 633.5,484.5 "/>
<polyline class="st1" points="633.5,484.5 642.5,481.5 644.45,489.3 "/>
<polygon class="st1" points="639.5,487.5 641.43,492.85 650.5,491.5 "/>
<polyline class="st1" points="657.5,507.5 667.5,509.5 670.48,518.46 "/>
<polyline class="st1" points="667.5,509.5 679.5,515.5 669.62,517.82 "/>
<polygon class="st1" points="683.36,527 697.5,513.5 679.5,515.5 "/>
<polyline class="st1" points="683.5,527.5 699.5,527.5 701.5,536.5 "/>
<polyline class="st1" points="643.1,483.91 651.5,476.5 650.5,491.5 650.5,500.01 659.5,502.5 657.87,507.4 668.5,500.5 
	667.5,509.5 661.5,504.5 "/>
<polyline class="st1" points="651.25,480.26 659.5,502.5 668.5,500.5 "/>
<polyline class="st1" points="654.6,489.3 669.5,500.5 679.5,515.5 696.5,496.5 697.5,513.5 699.5,527.5 711.5,523.5 708.61,535.37 
	"/>
<line class="st1" x1="697.5" y1="513.5" x2="711.5" y2="523.5"/>
<polyline class="st1" points="697.23,467.79 701.5,450.5 683.5,460.5 690.75,449.72 701.5,450.5 "/>
<polyline class="st1" points="697.5,466.71 704.5,471.5 698.5,473.5 "/>
<polyline class="st1" points="683.5,460.5 686.5,471.5 692.5,467.5 "/>
<polyline class="st1" points="650.5,459.5 661.5,458.5 651.51,453.5 650.5,459.5 643.87,453.5 635.5,460.5 637.39,454.39 "/>
<polyline class="st1" points="661.05,458.28 663.5,471.5 656.7,459.13 646.5,466.5 "/>
<line class="st1" x1="673.5" y1="453.5" x2="663.5" y2="471.5"/>
<polyline class="st2" points="616,508.17 625,514 637.11,499.84 657.5,507.5 "/>
<line class="st2" x1="657.5" y1="507.5" x2="627.27" y2="511.35"/>
<polygon class="st1" points="624.5,513.5 604.5,512.5 600.5,531.5 "/>
<polyline class="st1" points="600.5,531.5 583.5,531.5 589.52,518.46 600.5,531.5 594.55,516.5 "/>
<polygon class="st1" points="583.5,531.5 577.02,523.31 573.5,538.5 "/>
<polyline class="st1" points="566.39,527.5 573.5,538.5 557.46,530.9 549.5,544.5 541.02,537.29 "/>
<path class="st1" d="M733.5,562.5l-25-3l18,16.25L733.5,562.5c-1-1,12.67,3.22,12.67,3.22L735.5,555.5l23.27-1.08"/>
<polyline class="st1" points="709.79,562.79 697.5,571.5 717.06,581.33 708.5,559.5 "/>
<polygon class="st1" points="697.5,571.5 698.5,586.5 678.5,565.5 "/>
<polyline class="st1" points="698.5,586.5 675.5,582.5 673.5,595.62 662.5,579.5 678.5,565.5 675.5,582.5 689.57,577.12 "/>
<polyline class="st1" points="653.88,561.86 639.5,579.5 662.5,579.5 651.5,557.5 678.5,565.5 "/>
<polygon class="st1" points="639.5,579.5 624.5,571.5 630.97,604.7 "/>
<line class="st1" x1="639.5" y1="579.88" x2="673.5" y2="595.5"/>
<polygon class="st1" points="604.5,604.5 626.13,579.88 593.5,570.5 "/>
<polyline class="st1" points="597.79,583.75 581.5,591.5 604.5,604.5 586.5,606.5 592,609.84 "/>
<polygon class="st1" points="581.5,591.5 586.5,606.5 571.69,612.62 "/>
<polyline class="st1" points="581.5,591.5 566.5,583.5 574,607.64 552.5,607.5 558.2,617.72 "/>
<polygon class="st1" points="552.5,607.5 539.14,620.31 543.5,595.5 "/>
<polyline class="st1" points="522.5,622.5 499.5,622.5 506.5,604.5 522.5,622.5 543.5,595.5 566.5,583.5 552.5,607.5 "/>
<line class="st1" x1="506.5" y1="604.5" x2="534.83" y2="606.65"/>
<polygon class="st1" points="499.5,622.5 492.56,629.87 477.5,620.5 "/>
<polyline class="st1" points="468.5,639.5 477.5,620.5 464.5,629.5 452.5,625.5 449.74,639.5 441.5,631.5 444.27,642.87 
	438.5,640.5 435.63,648.19 434.36,641.75 "/>
<polyline class="st1" points="442.5,635.5 438.5,640.5 438.5,635.34 "/>
<polyline class="st1" points="441.64,631.08 451.46,630.78 443.5,621.5 452.5,625.5 455.5,617.5 464.5,629.5 "/>
<polyline class="st1" points="442.09,631.06 443.77,621.81 438.5,622.5 439.5,615.5 "/>
<polyline class="st1" points="443.5,621.5 439.46,615.81 432.5,620.5 438.5,622.5 "/>
<polyline class="st1" points="405.5,636.5 408.65,632.18 412.15,636.72 405.5,636.5 403.05,640.06 398.92,639.19 "/>
<line class="st1" x1="417.61" y1="629.24" x2="408.5" y2="632.5"/>
<polyline class="st1" points="417.5,629.5 425.5,626.5 419.81,623.92 417.5,629.5 421.12,634.28 410.49,634.57 "/>
<polyline class="st1" points="432.5,625.5 426.5,620.5 432.5,620.5 432.5,624.74 432.5,627.34 425.5,626.5 420.5,634.5 "/>
<polyline class="st1" points="426.5,620.5 419.82,624.14 421.5,616.5 426.5,620.5 425.5,626.5 "/>
<polyline class="st1" points="421.5,616.5 430.5,608.5 419.82,605.2 421.5,616.5 409.93,611.1 418,621.4 405.5,620.5 404.62,627.5 
	399.55,625.78 405.5,620.5 410.49,610.76 "/>
<polyline class="st1" points="405.5,620.5 400.5,620.5 410.24,611.25 "/>
<path class="st1" d="M400.5,620.5"/>
<polyline class="st1" points="399.5,625.5 399.93,629.49 396.5,629.5 399.5,627.5 "/>
<polyline class="st1" points="393.5,628.5 388.5,632.5 393.31,632.13 393.31,630.24 393.31,628.69 396.5,629.5 "/>
<polyline class="st1" points="388.5,632.5 385.96,634.93 385.16,632.5 "/>
<polyline class="st1" points="384.92,632.61 382.5,634.5 385.78,634.99 "/>
<polyline class="st1" points="382.5,634.5 379.43,637.32 376.73,636.43 "/>
<polyline class="st1" points="355.62,610.18 351.5,603.5 358.26,602.72 354.04,614.66 356.5,619.5 363.5,608.79 363.5,615.5 
	373.18,614.31 374.5,620.5 385.5,617.5 384.5,621.5 391.77,623.92 394.48,617.63 400.5,620.5 "/>
<polygon class="st1" points="363.5,615.5 368.5,626.5 374.5,620.5 "/>
<polyline class="st1" points="363.5,615.5 365.19,630.4 368.5,626.5 380.17,627.65 374.5,621 "/>
<line class="st1" x1="384.5" y1="621.5" x2="379.61" y2="627.79"/>
<polyline class="st1" points="326.5,604.5 326.5,608.56 331.5,608.5 337.5,613.5 344.5,619.5 343.85,608.23 337.5,613.5 
	335.84,604.05 331.5,608.5 329.01,601.33 326.5,604.5 319.5,600.5 "/>
<polyline class="st1" points="331.5,608.5 333.2,614.22 337.5,613.5 "/>
<polyline class="st1" points="356.5,619.5 347.41,622.5 344.5,619.5 "/>
<polyline class="st1" points="355.95,619.68 360.62,626.63 364.54,624.65 356.5,619.5 344.5,619.5 354.5,614.5 363.19,609.27 "/>
<g>
	<polyline class="st1" points="519.5,559.5 523.5,549.5 501.5,552.5 	"/>
	<g>
		<polygon class="st1" points="507.5,561.5 501.5,552.5 519.5,559.5 		"/>
		<g>
			<polyline class="st1" points="491.5,581.5 499.5,571.5 477.5,569.5 			"/>
			<polygon class="st1" points="499.5,571.5 491.5,559.8 507.5,561.5 			"/>
			<polyline class="st1" points="529.5,542.5 534.5,557.5 523.5,549.5 529.19,541.88 549.5,544.5 566.9,535.37 			"/>
		</g>
	</g>
</g>
<polyline class="st1" points="534.5,557.5 539.14,543.16 545.5,557.5 549.5,544.5 558.5,552.5 545.5,557.5 "/>
<line class="st1" x1="536.12" y1="552.5" x2="545.5" y2="557.5"/>
<polygon class="st2" points="653,516 643,522 657,524 "/>
<polyline class="st1" points="657.5,523.5 654.5,536.5 648.87,522.84 "/>
<polygon class="st1" points="667.5,525.5 662.5,528.5 670.5,531.5 "/>
<polygon class="st1" points="607.5,536.5 600.5,551.5 593.5,543.5 "/>
<polygon class="st1" points="465.5,612.5 477.5,601.5 474.5,612.5 "/>
<polyline class="st1" points="474.5,612.5 482.5,606.5 476.49,605.2 "/>
<polygon class="st1" points="507.5,583.5 501.5,579.5 499.5,590.5 "/>
<polygon class="st1" points="927.5,219.5 926.5,225.5 936.5,221.5 "/>
<path class="st1" d="M950.5,258.5l-4-6c0,0-12,15-10,13S950.5,258.5,950.5,258.5z"/>
<polygon class="st1" points="901.5,287.5 896.5,278.5 894.5,289.5 "/>
<polyline class="st1" points="901.5,287.5 904.5,293.5 898,289.5 896.5,296.5 883.5,290.5 894.5,289.5 "/>
<polygon class="st1" points="720.5,499.5 711.5,504.5 724.5,504.5 "/>
<g id="ORAO">
	<path class="st1" d="M613.72,486.18c0,0,0.02-0.01,0.07-0.02c0.27-1.51,0.81-2.94,1.78-3.93c0.02-0.03,0.05-0.06,0.08-0.09"/>
	<polyline class="st1" points="615.5,482.5 615.57,482.23 615.58,482.18 	"/>
	<path class="st1" d="M643.36,494.23c0,0,0.55,2.23-7.27,6.14l-134.2,52.11l-35.18,24.75l-67.75,40.39c0,0-29.97,1.3-37.78-11.73
		c0,0-11.73-14.33-26.06-16.94c0,0,11.73,22.15,19.54,26.06c0,0-26.06-18.24-35.18-14.33c0,0,14.33,20.85,41.69,26.06
		c0,0-29.97-6.51-35.18,0c0,0,33.87,13.03,74.26-6.51c0,0,2.61,2.61,0,5.21l-39.09,18.24c0,0,46.9-15.63,54.72-22.15
		c0,0,3.91-1.3,3.91,2.61l-32.57,23.45c0,0,19.54-10.42,28.66-11.73c9.12-1.3,22.15-13.03,22.15-13.03s5.21,1.3,3.91,7.82
		c0,0-10.42,13.03-11.73,20.85l33.87-20.85l1.3,6.51c0,0,2.61,5.21,7.82,1.3c5.21-3.91,20.85-9.12,20.85-9.12s15.63,1.3,28.66-6.51
		c0,0,7.82,2.61,23.45-5.21c0,0,19.54,2.61,19.54-5.21c0,0,14.33,1.3,18.24-2.61c0,0,22.15,1.3,20.85-5.21c0,0,19.54,5.21,28.66-1.3
		c0,0,11.73,1.3,16.94-3.91c0,0,18.24,2.61,18.24-3.91c0,0,16.94,1.3,16.94-3.91c0,0,13.03,1.3,13.03-5.21c0,0,10.42,1.3,11.73-5.21
		c0,0,10.42,2.61,14.33-5.21c0,0,7.82,0,11.73-6.51c0,0,13.03-1.3,10.42-7.82c0,0,10.83-0.04,11.93-7.18"/>
	<polyline class="st1" points="611.5,476.5 612.5,472.5 608.02,474.17 	"/>
	<line class="st2" x1="360.5" y1="626.5" x2="365.5" y2="630.5"/>
	<polyline class="st1" points="356.5,630.5 351.5,628.5 347.38,630.78 349.9,624.81 351.5,628.5 356.5,625.84 356.5,630.97 
		361.19,626.75 	"/>
	<polyline class="st1" points="349.5,624.5 343.5,628.5 343.5,624.29 338.69,629.81 334.8,623.92 333.5,627.5 327.57,625.5 	"/>
	<polyline class="st1" points="331.5,628.5 333.5,627.5 338.5,629.5 	"/>
	<polyline class="st1" points="338.5,629.5 343.5,628.5 347.5,630.5 	"/>
	<path class="st1" d="M351.5,603.5c0-1-2.49-8.49-2.49-8.49l-4.51,8.49H351.5l2.54,11.16"/>
	<polyline class="st1" points="344.5,603.5 343.5,595.5 349.5,595.5 	"/>
	<polygon class="st1" points="343.5,595.5 339.87,590.26 338.85,595.5 	"/>
	<polyline class="st1" points="430.5,608.5 439.5,604.5 419.5,605.5 449.5,595.5 443.77,590.92 	"/>
	<polygon class="st1" points="449.5,595.5 447.5,606.5 457.5,596.5 	"/>
	<polyline class="st1" points="457.5,596.5 464.5,590.5 449.5,595.5 462.93,579.5 477.5,580.5 477.5,569.65 491.5,581.5 
		477.5,580.5 	"/>
	<polyline class="st1" points="464.5,590.5 477.5,580.5 478.5,591.5 464.5,590.5 463.5,579.5 	"/>
</g>
</svg>
