<?xml version="1.0" encoding="utf-8"?>
<!-- Generator: Adobe Illustrator 23.0.1, SVG Export Plug-In . SVG Version: 6.00 Build 0)  -->
<svg version="1.1" xmlns="http://www.w3.org/2000/svg" xmlns:xlink="http://www.w3.org/1999/xlink" x="0px" y="0px"
	 viewBox="0 0 3710 3710" style="enable-background:new 0 0 3710 3710;" xml:space="preserve">
<style type="text/css">
	.st0{fill:none;}
	.st1{fill:url(#SVGID_1_);}
	.st2{fill:#009CF8;}
	.st3{opacity:0.43;fill:#FFFFFF;}
	.st4{fill:#006BE6;}
	.st5{fill:#FFFFFF;}
	.st6{fill:#FF994C;}
	.st7{fill:url(#SVGID_2_);}
	.st8{fill:#00295D;}
	.st9{fill:url(#SVGID_3_);}
	.st10{fill:url(#SVGID_4_);}
	.st11{fill:url(#SVGID_5_);}
	.st12{fill:url(#SVGID_6_);}
	.st13{fill:url(#SVGID_7_);}
	.st14{fill:url(#SVGID_8_);}
	.st15{fill:url(#SVGID_9_);}
	.st16{fill:url(#SVGID_10_);}
	.st17{fill:url(#SVGID_11_);}
	.st18{opacity:0.3;}
	.st19{fill:#91B3FA;}
	.st20{fill:#BDD0FB;}
</style>
<g id="Background">
	<g>
		<g>
			<rect class="st0" width="3710" height="3710"/>
		</g>
	</g>
</g>
<g id="Illustration">
	<g>
		<linearGradient id="SVGID_1_" gradientUnits="userSpaceOnUse" x1="3571.2126" y1="4081.4114" x2="1079.7383" y2="987.1564">
			<stop  offset="0" style="stop-color:#DAE3FE"/>
			<stop  offset="1" style="stop-color:#E9EFFD"/>
		</linearGradient>
		<path class="st1" d="M2885.79,2861.15c-57.23,60.25-111.38,99.1-154.16,129.8c-502.89,360.83-1097.95,255.65-1224.41,229.96
			c-186.75-37.93-547.74-111.25-808.72-418.16c-394.85-464.34-333.37-1195.88-27.09-1678.79
			c56.02-88.33,351.95-578.59,953.41-657.21c364-47.58,788.31,48.38,1095.58,305.82
			C3365.38,1312.94,3319.47,2404.59,2885.79,2861.15z"/>
		<g>
			<g>
				<path class="st2" d="M3079.54,760.03c-5.49-14.97-27.45-12.62-29.58,3.18c-20.63,152.76-87.29,551.62-243.84,780.27
					c-254.9,372.29-380.18,936.36-148.36,1186.93C2657.76,2730.4,3677.76,2391,3079.54,760.03z"/>
				<path class="st3" d="M3079.93,973.81c0.3,4.86,0.16,8.89,0.21,13.23l-0.15,12.8l-0.59,25.57c-0.51,17.04-1.28,34.07-2.05,51.1
					c-1.67,34.05-3.76,68.07-6.16,102.08c-4.93,68-11.7,135.86-19.49,203.61c-7.7,67.76-17.29,135.31-28.31,202.62
					c-11.08,67.3-23.11,134.47-37.35,201.21c-28.21,133.51-63.7,265.61-108.39,394.67c-23.02,64.28-47.73,128-76.08,190.14
					c-28.79,61.92-60.23,122.64-95.95,180.81c-0.78,1.26-2.43,1.66-3.7,0.88c-1.23-0.76-1.64-2.35-0.94-3.6l0.02-0.03
					c33.32-59.29,63.39-120.26,90.4-182.57c27.19-62.25,50.74-126.02,72.6-190.31c21.83-64.32,41.05-129.51,58.8-195.09
					c17.72-65.6,32.72-131.9,47.35-198.27c28.69-132.9,50.27-267.27,68.14-402.11c8.79-67.44,16.23-135.07,22.46-202.82
					c3.17-33.87,6.03-67.77,8.47-101.7l3.26-50.92l1.37-25.46l0.54-12.73c0.11-4.17,0.3-8.65,0.25-12.31l-0.01-0.6
					c-0.02-1.47,1.15-2.68,2.62-2.7C3078.66,971.29,3079.84,972.41,3079.93,973.81z"/>
			</g>
			<g>
				<path class="st2" d="M2413.71,476.07c-9.12-12.23-28.61-4.09-26.26,10.98c22.75,145.72,70.44,529.68-10.75,782.07
					c-132.19,410.94-93.21,962.41,187.74,1128.95C2564.44,2398.07,3407.24,1808.56,2413.71,476.07z"/>
				<path class="st3" d="M2472.43,672c1.61,4.38,2.58,8.11,3.8,12.08l3.35,11.78l6.44,23.61c4.19,15.77,8.13,31.59,12.07,47.42
					c7.77,31.68,15.14,63.45,22.22,95.29c14.04,63.71,26.35,127.78,37.69,192.03c11.44,64.24,21.07,128.8,29.33,193.54
					c8.21,64.74,15.5,129.63,20.65,194.71c10.56,130.13,14.03,260.97,8.25,391.52c-3.58,65.23-8.87,130.41-17.93,195.13
					c-9.53,64.64-21.8,128.9-38.72,191.98c-0.38,1.4-1.81,2.23-3.21,1.85c-1.36-0.36-2.18-1.74-1.88-3.1l0.01-0.04
					c14.36-63.46,25.29-127.58,33.05-192.09c7.95-64.5,12.13-129.41,14.63-194.32c2.46-64.94,2.31-129.96,0.69-194.94
					c-1.64-64.99-5.98-129.88-10.67-194.73c-9.94-129.69-26.81-258.81-47.18-387.33c-10.33-64.25-21.95-128.3-34.71-192.12
					c-6.33-31.92-12.94-63.79-19.96-95.58l-10.89-47.58l-5.69-23.73l-2.97-11.82c-1.04-3.85-2.09-8.02-3.13-11.35l-0.18-0.56
					c-0.43-1.37,0.33-2.82,1.7-3.25C2470.55,670,2471.96,670.71,2472.43,672z"/>
			</g>
		</g>
		<g>
			
				<ellipse transform="matrix(0.7071 -0.7071 0.7071 0.7071 -838.5657 1647.365)" class="st4" cx="1569.26" cy="1835.92" rx="1114.9" ry="1114.9"/>
			
				<ellipse transform="matrix(0.7071 -0.7071 0.7071 0.7071 -816.6905 1700.1686)" class="st5" cx="1643.94" cy="1835.92" rx="1114.9" ry="1114.9"/>
			<g>
				<circle class="st4" cx="1643.94" cy="1835.92" r="951.52"/>
				<path class="st5" d="M1643.94,2835.1c-550.95,0-999.18-448.23-999.18-999.18s448.23-999.18,999.18-999.18
					s999.18,448.23,999.18,999.18S2194.89,2835.1,1643.94,2835.1z M1643.94,884.39c-524.67,0-951.52,426.85-951.52,951.52
					c0,524.68,426.85,951.52,951.52,951.52c524.67,0,951.52-426.85,951.52-951.52C2595.46,1311.24,2168.61,884.39,1643.94,884.39z"
					/>
			</g>
			<g>
				
					<ellipse transform="matrix(0.7071 -0.7071 0.7071 0.7071 -816.6904 1700.1687)" class="st4" cx="1643.94" cy="1835.92" rx="580.09" ry="580.09"/>
				<path class="st5" d="M1643.94,2463.67c-346.14,0-627.75-281.61-627.75-627.76s281.61-627.75,627.75-627.75
					c346.14,0,627.75,281.6,627.75,627.75S1990.08,2463.67,1643.94,2463.67z M1643.94,1303.48
					c-293.59,0-532.44,238.85-532.44,532.43s238.85,532.44,532.44,532.44c293.59,0,532.44-238.86,532.44-532.44
					S1937.53,1303.48,1643.94,1303.48z"/>
			</g>
			<g>
				
					<ellipse transform="matrix(0.7071 -0.7071 0.7071 0.7071 -816.6904 1700.1687)" class="st6" cx="1643.94" cy="1835.92" rx="224.75" ry="224.75"/>
				<path class="st5" d="M1643.94,2108.32c-150.2,0-272.4-122.2-272.4-272.41s122.2-272.41,272.4-272.41
					c150.2,0,272.41,122.2,272.41,272.41S1794.14,2108.32,1643.94,2108.32z M1643.94,1658.83c-97.65,0-177.09,79.44-177.09,177.09
					s79.44,177.09,177.09,177.09c97.65,0,177.09-79.44,177.09-177.09S1741.59,1658.83,1643.94,1658.83z"/>
			</g>
		</g>
		<g>
			<g>
				<path class="st4" d="M3196.65,2171.03l47.61,96.08l-201.88-46.48c-66.15-15.23-121.97-59.32-152.11-120.14l0,0L3196.65,2171.03z
					"/>
				<path class="st4" d="M3203.3,2142.16l84.83-65.59l-201.88-46.48c-66.15-15.23-135.63,0.01-189.33,41.53l0,0L3203.3,2142.16z"/>
				
					<linearGradient id="SVGID_2_" gradientUnits="userSpaceOnUse" x1="736.0898" y1="7619.0273" x2="452.0268" y2="8773.0293" gradientTransform="matrix(0.2244 -0.9745 0.9745 0.2244 -6015.6138 520.1205)">
					<stop  offset="0" style="stop-color:#00295D"/>
					<stop  offset="1" style="stop-color:#003FA7"/>
				</linearGradient>
				<polygon class="st7" points="3207.86,2138.18 3199.89,2172.78 1889.57,1871.1 1897.54,1836.5 				"/>
				<path class="st8" d="M1958.33,1819.44c19.85,4.57-1.7,98.16-21.55,93.59l-301.45-108.49c-11.14-4.01-7.31-20.62,4.46-19.36
					L1958.33,1819.44z"/>
			</g>
			<g>
				<g>
					<path class="st8" d="M2278.17,3169.51c0,0,16.09,23.19,16.9,55.77c0.19,7.67-6.02,14.01-13.69,14.28l-123.86,4.32
						c-5.8,0.2-8.41-7.17-3.78-10.67c22.86-17.28,67.86-49.63,100.76-62.88L2278.17,3169.51z"/>
					
						<linearGradient id="SVGID_3_" gradientUnits="userSpaceOnUse" x1="2126.9277" y1="1776.8901" x2="2163.9634" y2="1776.8901" gradientTransform="matrix(-0.9907 0.1362 0.1362 0.9907 4148.8657 1097.9357)">
						<stop  offset="0" style="stop-color:#FEBBBA"/>
						<stop  offset="1" style="stop-color:#FF928E"/>
					</linearGradient>
					<path class="st9" d="M2281.25,3129.96l-3.17,47.62c-0.35,5.33-4.94,9.51-10.26,9.06c-3.23-0.27-7.12-1.1-11.41-3.03
						c-4.08-1.83-6.6-6.04-6.43-10.51l2.16-57.45L2281.25,3129.96z"/>
				</g>
				<g>
					<path class="st8" d="M2968.23,2961.76c0,0,25.83-11.4,57.97-6.01c7.57,1.27,12.61,8.57,11.42,16.15l-19.26,122.43
						c-0.9,5.73-8.64,6.9-11.19,1.69c-12.63-25.73-35.85-76.04-42.62-110.86L2968.23,2961.76z"/>
					
						<linearGradient id="SVGID_4_" gradientUnits="userSpaceOnUse" x1="-1060.4637" y1="-2473.792" x2="-1023.4249" y2="-2473.792" gradientTransform="matrix(-0.0542 0.9985 0.9985 0.0542 5360.7578 4145.1694)">
						<stop  offset="0" style="stop-color:#FEBBBA"/>
						<stop  offset="1" style="stop-color:#FF928E"/>
					</linearGradient>
					<path class="st10" d="M2929.99,2951.23l46.15,12.15c5.16,1.36,8.4,6.66,6.95,11.8c-0.88,3.12-2.43,6.78-5.14,10.63
						c-2.57,3.66-7.19,5.33-11.54,4.32l-56-13.02L2929.99,2951.23z"/>
				</g>
				
					<linearGradient id="SVGID_5_" gradientUnits="userSpaceOnUse" x1="2299.2639" y1="2448.8579" x2="2360.186" y2="2461.2847" gradientTransform="matrix(0.9932 0.1165 -0.1165 0.9932 243.8806 -741.6713)">
					<stop  offset="0" style="stop-color:#FEBBBA"/>
					<stop  offset="1" style="stop-color:#FF928E"/>
				</linearGradient>
				<path class="st11" d="M2297.97,1987.88c0,0-4.15-9.59-3.48-15.27c0.67-5.67,0.83-23.39-9.8-30.87c0,0-5.76,0.28-5.87,6.74
					c-6.77-7.27-7.11-13.54-14.11-9.08c-6.99,4.45-33.31,20.42-20.17,30.95c13.14,10.53,33.8,30.57,33.8,30.57L2297.97,1987.88z"/>
				<linearGradient id="SVGID_6_" gradientUnits="userSpaceOnUse" x1="2675.5417" y1="2769.8689" x2="2949.7517" y2="3299.2466">
					<stop  offset="0" style="stop-color:#002E6C"/>
					<stop  offset="1" style="stop-color:#0041AB"/>
				</linearGradient>
				<path class="st12" d="M2526.03,2753.92c0,0,23.44,187.09,90.57,194.23c67.12,7.14,324.2,44.27,324.2,44.27l7.14-38.56
					c0,0-148.53-89.98-237.08-88.55c-44.27-65.7-33.47-247.22-33.47-247.22L2526.03,2753.92z"/>
				<path class="st6" d="M2802.17,2100.73c-7.91,208.59-117.32,227.01-117.32,227.01v266.78h-154.28c0,0-74.81-182.18-72.87-243.07
					c-111.27-47.05-167.59-316.08-179.35-350.53c5.48-4.17,8.43-4.01,19.62-13.04c151.66,241.37,188.66,278.47,188.66,278.47h85.69
					c164.66-14.79,205.17-171.31,205.17-171.31L2802.17,2100.73z"/>
				<linearGradient id="SVGID_7_" gradientUnits="userSpaceOnUse" x1="2291.5596" y1="2843.7346" x2="2617.8892" y2="2910.2986">
					<stop  offset="0" style="stop-color:#002D6B"/>
					<stop  offset="1" style="stop-color:#204B9A"/>
				</linearGradient>
				<path class="st13" d="M2680.03,2593.96c0,0,12.26,130.72-245.23,232.6c-62.84,117.11-145.26,335.43-145.26,335.43h-54.27
					c0,0,37.13-329.71,102.83-395.41c65.7-65.7,137.37-139.63,192.46-172C2658.02,2581.25,2680.03,2593.96,2680.03,2593.96z"/>
				<g>
					
						<linearGradient id="SVGID_8_" gradientUnits="userSpaceOnUse" x1="1990.0829" y1="2225.0168" x2="1721.344" y2="2718.7981" gradientTransform="matrix(-0.9937 -0.112 -0.112 0.9937 4681.1475 24.4975)">
						<stop  offset="0" style="stop-color:#FEBBBA"/>
						<stop  offset="1" style="stop-color:#FF928E"/>
					</linearGradient>
					<path class="st14" d="M2570.25,2169.12l28.4,100.02c0,0-48.53,26.08-84.41,19.03l-9.86-88.17L2570.25,2169.12z"/>
					<g>
						
							<linearGradient id="SVGID_9_" gradientUnits="userSpaceOnUse" x1="1049.8236" y1="5325.1733" x2="931.0512" y2="5482.2993" gradientTransform="matrix(-0.7472 -0.6646 -0.6646 0.7472 6851.9165 -1168.7673)">
							<stop  offset="0" style="stop-color:#FEBBBA"/>
							<stop  offset="1" style="stop-color:#FF928E"/>
						</linearGradient>
						<path class="st15" d="M2511.42,2096.49c-1.04,1.17-39.67,97.23-39.67,97.23l55.32,20.89l50.14-85.6
							C2577.2,2129,2528.84,2076.9,2511.42,2096.49z"/>
						<path class="st8" d="M2554.21,2140.27l-22.86,47.13c-0.29,0.6-0.66,1.15-1.1,1.66c-2.73,3.08-12.89,12.97-22.38,1.96
							c-8.61-10-16.62-18.99-24.68-21.37c-3.62-1.07-7.45,0.78-8.86,4.28c-3.51,8.73-11.05,28.54-14.97,46.76
							c-0.8,3.7,1.4,7.37,5.02,8.48c10.88,3.37,34.04,9.82,53.88,10.66c2.69,0.11,5.22-1.22,6.6-3.53
							c6.76-11.24,27.44-45.34,34.67-53.95c6.79-8.08,20.99-6.23,26.89-5.03c1.94,0.39,3.93-0.02,5.55-1.15
							c5.73-3.99,16.99-14.55,4.59-30.11c-2.59-3.26-1.98-7.97,1.35-10.46c6.64-4.97,14.18-14.25,5.58-27.79
							c-8.74-13.76-22.38-13.27-30.94-11.19c-3.46,0.84-6.93-0.98-8.39-4.22c-0.83-1.85-2.48-3.36-5.62-3.44
							c-4.23-0.11-7.36-4.01-6.81-8.21c1.06-8.06-0.69-18.6-14.21-24.55c-24-10.55-42.23,11.74-45.79,29.5
							c-3.56,17.76,23.12,27.72,39.39,28.33c12.38,0.46,20.12,13.65,23.12,19.95C2555.2,2135.97,2555.18,2138.28,2554.21,2140.27z"
							/>
						
							<linearGradient id="SVGID_10_" gradientUnits="userSpaceOnUse" x1="875.8669" y1="5449.605" x2="971.1337" y2="5351.8638" gradientTransform="matrix(-0.7472 -0.6646 -0.6646 0.7472 6851.9165 -1168.7673)">
							<stop  offset="0" style="stop-color:#FEBBBA"/>
							<stop  offset="1" style="stop-color:#FF928E"/>
						</linearGradient>
						<path class="st16" d="M2551.04,2199.42c0,0,7.53-30.68,20.65-30.74c13.12-0.06,24.53,12,9.68,28.02
							C2562.91,2216.63,2551.04,2199.42,2551.04,2199.42z"/>
					</g>
				</g>
				<linearGradient id="SVGID_11_" gradientUnits="userSpaceOnUse" x1="2774.4014" y1="2067.2852" x2="2810.6677" y2="2074.6826">
					<stop  offset="0" style="stop-color:#FEBBBA"/>
					<stop  offset="1" style="stop-color:#FF928E"/>
				</linearGradient>
				<path class="st17" d="M2807.34,2045.7c0,0-33.32-14.76-29.04,10c4.29,24.76-4.66,42.85,14.33,44.75
					C2811.62,2102.35,2813.79,2062.81,2807.34,2045.7z"/>
			</g>
		</g>
		<g>
			<g>
				<g class="st18">
					<path class="st19" d="M834.39,953.73c-5.36,0.27-10.18-3.55-11.02-8.97c-1.86-11.86-3.22-23.97-4.07-36
						c-0.41-5.85,4-10.93,9.85-11.34c0.07,0,0.14-0.01,0.21-0.01c5.77-0.29,10.73,4.08,11.14,9.87c0.8,11.43,2.1,22.94,3.86,34.2
						c0.91,5.8-3.06,11.23-8.85,12.14C835.13,953.67,834.76,953.71,834.39,953.73z M830.36,861.26c-0.41,0.02-0.84,0.02-1.26-0.01
						c-5.85-0.39-10.28-5.46-9.89-11.31c0.81-12.03,2.13-24.14,3.95-35.99c0.89-5.8,6.28-9.77,12.11-8.9
						c5.8,0.89,9.78,6.31,8.89,12.11c-1.72,11.27-2.98,22.77-3.75,34.2C840.05,856.79,835.66,860.99,830.36,861.26z M846.79,770.2
						c-1.18,0.06-2.39-0.08-3.59-0.44c-5.62-1.69-8.81-7.61-7.13-13.23c3.45-11.52,7.45-23.04,11.88-34.22
						c2.17-5.45,8.34-8.12,13.79-5.96c5.45,2.16,8.12,8.34,5.96,13.79c-4.21,10.62-8.01,21.56-11.29,32.5
						C855.11,767.06,851.15,769.98,846.79,770.2z M883.19,685.08c-1.95,0.1-3.95-0.34-5.78-1.38c-5.1-2.9-6.89-9.39-3.99-14.49
						c5.95-10.46,12.42-20.8,19.24-30.71c3.33-4.83,9.94-6.05,14.78-2.73c4.83,3.32,6.06,9.94,2.73,14.77
						c-6.47,9.41-12.62,19.23-18.27,29.17C890.03,683,886.69,684.91,883.19,685.08z M937.64,610.22c-2.74,0.14-5.53-0.77-7.71-2.77
						c-4.33-3.96-4.63-10.68-0.67-15.01c8.1-8.86,16.7-17.5,25.55-25.67c4.31-3.98,11.03-3.72,15.01,0.59
						c3.98,4.31,3.71,11.03-0.6,15.02c-8.41,7.77-16.58,15.98-24.28,24.4C942.98,608.93,940.34,610.09,937.64,610.22z
						 M1007.3,549.28c-3.55,0.18-7.1-1.42-9.28-4.55c-3.35-4.82-2.16-11.44,2.66-14.79c9.88-6.86,20.17-13.39,30.6-19.39
						c5.09-2.93,11.58-1.18,14.51,3.91c2.93,5.08,1.18,11.58-3.91,14.51c-9.91,5.7-19.69,11.9-29.07,18.42
						C1011.12,548.57,1009.21,549.18,1007.3,549.28z M1394.83,504.2c-1.47,0.07-2.97-0.16-4.43-0.73
						c-10.62-4.19-21.56-7.97-32.53-11.23c-5.62-1.67-8.83-7.59-7.15-13.21c1.67-5.62,7.59-8.83,13.21-7.15
						c11.55,3.44,23.08,7.42,34.26,11.83c5.46,2.15,8.14,8.32,5.99,13.78C1402.6,501.49,1398.86,504,1394.83,504.2z M1088.68,505.31
						c-4.4,0.22-8.66-2.33-10.4-6.64c-2.19-5.44,0.44-11.63,5.88-13.83c11.16-4.5,22.64-8.56,34.14-12.08
						c5.62-1.69,11.55,1.44,13.27,7.05c1.72,5.61-1.44,11.55-7.05,13.27c-10.92,3.34-21.83,7.2-32.42,11.47
						C1090.98,505,1089.82,505.25,1088.68,505.31z M1305.45,480.17c-0.7,0.04-1.41,0.01-2.14-0.1c-11.29-1.71-22.81-2.94-34.23-3.69
						c-5.86-0.38-10.29-5.44-9.91-11.29c0.38-5.85,5.43-10.32,11.29-9.91c12.02,0.78,24.14,2.09,36.02,3.88
						c5.8,0.88,9.8,6.29,8.92,12.09C1314.64,476.23,1310.39,479.92,1305.45,480.17z M1177.83,480.63
						c-5.35,0.27-10.16-3.53-11.02-8.95c-0.92-5.8,3.03-11.24,8.83-12.16c11.87-1.88,23.97-3.27,35.98-4.14
						c0.07-0.01,0.15-0.01,0.23-0.02c5.76-0.29,10.72,4.07,11.13,9.85c0.42,5.85-3.98,10.94-9.83,11.36
						c-11.41,0.82-22.91,2.15-34.18,3.94C1178.59,480.57,1178.21,480.61,1177.83,480.63z"/>
					<path class="st19" d="M1461.47,537.74c-2.09,0.11-4.23-0.4-6.14-1.59c-4.65-2.9-9.44-5.74-14.23-8.46
						c-5.1-2.89-6.89-9.38-4-14.48c2.89-5.1,9.38-6.9,14.48-4c5.04,2.86,10.08,5.85,14.97,8.9c4.98,3.1,6.51,9.65,3.41,14.63
						C1468.05,535.81,1464.83,537.56,1461.47,537.74z"/>
				</g>
				<g class="st18">
					<path class="st19" d="M1647.8,802.7c-5.12,0.26-9.82-3.22-10.92-8.4c-1.14-5.36-2.41-10.78-3.78-16.12
						c-1.46-5.69,1.97-11.47,7.65-12.93c5.71-1.46,11.47,1.97,12.93,7.65c1.44,5.62,2.78,11.33,3.98,16.97
						c1.22,5.74-2.44,11.38-8.18,12.6C1648.92,802.6,1648.36,802.67,1647.8,802.7z"/>
					<path class="st19" d="M1264.61,1302.42c-4.88,0.25-9.79,0.42-14.71,0.5c-5.87,0.1-10.71-4.57-10.81-10.44
						c-0.1-5.87,4.6-10.73,10.44-10.81c11.37-0.2,22.71-0.85,33.82-1.97c5.84-0.58,11.05,3.67,11.63,9.51
						c0.59,5.84-3.67,11.05-9.51,11.63C1278.6,1301.53,1271.58,1302.06,1264.61,1302.42z M1193.88,1300.05
						c-0.59,0.03-1.2,0.01-1.81-0.06c-11.77-1.4-23.61-3.31-35.2-5.69c-5.75-1.18-9.45-6.79-8.27-12.54
						c1.18-5.75,6.81-9.47,12.54-8.27c11,2.26,22.25,4.07,33.44,5.41c5.83,0.69,9.99,5.98,9.29,11.8
						C1203.26,1295.91,1198.96,1299.79,1193.88,1300.05z M1340.58,1291.42c-5,0.26-9.64-3.07-10.86-8.12
						c-1.38-5.71,2.13-11.45,7.83-12.82c10.91-2.63,21.86-5.77,32.54-9.33c5.57-1.85,11.58,1.16,13.44,6.72
						c1.85,5.57-1.16,11.59-6.72,13.44c-11.25,3.75-22.78,7.05-34.27,9.83C1341.89,1291.3,1341.24,1291.39,1340.58,1291.42z
						 M1105.15,1279.39c-1.35,0.07-2.73-0.12-4.08-0.6c-11.17-3.95-22.3-8.42-33.08-13.29c-5.35-2.42-7.72-8.71-5.31-14.05
						c2.42-5.35,8.7-7.73,14.06-5.31c10.24,4.63,20.81,8.88,31.42,12.62c5.53,1.95,8.43,8.03,6.48,13.56
						C1113.15,1276.5,1109.32,1279.18,1105.15,1279.39z M1426.16,1260.38c-4.1,0.21-8.13-1.99-10.07-5.91
						c-2.6-5.26-0.44-11.63,4.82-14.23c10.06-4.97,20.05-10.44,29.69-16.26c5.02-3.03,11.55-1.42,14.59,3.61
						c3.03,5.02,1.42,11.55-3.61,14.58c-10.15,6.13-20.66,11.89-31.26,17.12C1428.98,1259.95,1427.56,1260.31,1426.16,1260.38z
						 M1502.85,1211.31c-3.28,0.17-6.59-1.18-8.81-3.93c-3.69-4.57-2.97-11.26,1.59-14.94c8.76-7.07,17.31-14.59,25.44-22.35
						c4.24-4.06,10.96-3.91,15.02,0.34c4.05,4.24,3.9,10.97-0.34,15.02c-8.55,8.17-17.56,16.08-26.77,23.52
						C1507.16,1210.43,1505.01,1211.2,1502.85,1211.31z M1567.02,1146.7c-2.5,0.13-5.04-0.62-7.15-2.3
						c-4.59-3.65-5.35-10.34-1.7-14.93c7.01-8.81,13.73-18.02,19.97-27.36c3.26-4.88,9.85-6.2,14.74-2.94
						c4.88,3.26,6.2,9.85,2.94,14.74c-6.56,9.83-13.63,19.52-21.01,28.79C1572.82,1145.18,1569.96,1146.55,1567.02,1146.7z
						 M1615.57,1069.63c-1.73,0.09-3.5-0.25-5.17-1.05c-5.28-2.56-7.48-8.91-4.92-14.19c4.91-10.13,9.45-20.58,13.48-31.06
						c2.11-5.48,8.26-8.21,13.73-6.11c5.48,2.11,8.21,8.25,6.1,13.73c-4.25,11.05-9.02,22.05-14.2,32.71
						C1622.84,1067.27,1619.31,1069.44,1615.57,1069.63z M1646.02,983.75c-0.97,0.05-1.97-0.04-2.96-0.27
						c-5.71-1.33-9.26-7.05-7.93-12.76c2.55-10.93,4.67-22.12,6.3-33.26c0.85-5.81,6.26-9.82,12.05-8.98
						c5.81,0.85,9.83,6.24,8.98,12.05c-1.71,11.72-3.94,23.5-6.64,35.01C1654.72,980.26,1650.63,983.51,1646.02,983.75z
						 M1656.86,893.33c-0.22,0.01-0.44,0.01-0.66,0.01c-5.87-0.06-10.58-4.86-10.52-10.73c0.08-8.28-0.09-16.66-0.51-24.92
						c-0.15-2.99-0.34-5.97-0.56-8.94c-0.43-5.85,3.97-10.94,9.83-11.37c5.92-0.55,10.94,3.97,11.37,9.82
						c0.23,3.13,0.42,6.26,0.58,9.4c0.44,8.68,0.62,17.5,0.53,26.22C1666.88,888.48,1662.42,893.05,1656.86,893.33z"/>
					<path class="st19" d="M1022.93,1239.56c-2.11,0.11-4.27-0.41-6.19-1.62c-4.87-3.06-9.76-6.29-14.55-9.58
						c-4.83-3.33-6.05-9.94-2.73-14.78c3.33-4.83,9.94-6.06,14.78-2.73c4.55,3.13,9.2,6.19,13.82,9.1
						c4.96,3.12,6.46,9.68,3.33,14.65C1029.47,1237.66,1026.27,1239.39,1022.93,1239.56z"/>
				</g>
				<g>
					<path class="st2" d="M1030.98,1115.76c1.42,1.57,3.68,2.07,5.63,1.24l55.59-23.72c23.21,16.06,49.15,28.54,77.06,36.57
						l16.81,58.01c0.59,2.04,2.41,3.47,4.52,3.58l72.4,3.63c2.12,0.11,4.07-1.14,4.86-3.11l22.52-56.04
						c28.58-5.2,55.63-15.02,80.33-28.69l52.94,29.15c1.86,1.02,4.16,0.75,5.73-0.67l53.76-48.63c1.57-1.42,2.07-3.68,1.24-5.63
						l-23.72-55.59c16.06-23.21,28.54-49.15,36.57-77.06l58.01-16.81c2.03-0.59,3.47-2.4,3.58-4.52l3.63-72.4
						c0.11-2.12-1.14-4.07-3.11-4.86l-56.04-22.52c-5.2-28.58-15.02-55.63-28.69-80.33l29.16-52.94c1.02-1.85,0.75-4.15-0.67-5.73
						l-48.63-53.76c-1.42-1.57-3.68-2.07-5.63-1.24l-55.59,23.72c-23.21-16.06-49.15-28.54-77.06-36.57l-16.81-58.01
						c-0.59-2.03-2.4-3.47-4.52-3.58l-72.4-3.63c-2.12-0.11-4.07,1.14-4.86,3.11l-22.52,56.04c-28.58,5.2-55.63,15.02-80.33,28.69
						l-52.94-29.15c-1.86-1.02-4.16-0.75-5.73,0.67l-53.76,48.63c-1.57,1.42-2.07,3.68-1.24,5.63l23.72,55.59
						c-16.06,23.21-28.54,49.15-36.57,77.06l-58.01,16.81c-2.03,0.59-3.47,2.4-3.58,4.52l-3.63,72.4c-0.11,2.12,1.14,4.07,3.11,4.86
						l56.04,22.52c5.2,28.58,15.02,55.63,28.69,80.33l-29.15,52.94c-1.02,1.86-0.75,4.15,0.67,5.73L1030.98,1115.76z"/>
					<g>
						<path class="st20" d="M1246.37,948.13c-35.48,1.81-67.95-22.65-75.12-58.5c-7.87-39.4,17.78-77.86,57.18-85.74
							c19.09-3.82,38.52,0.03,54.71,10.83c16.19,10.8,27.21,27.26,31.03,46.34c7.87,39.4-17.78,77.86-57.18,85.74
							C1253.44,947.51,1249.89,947.95,1246.37,948.13z M1239.98,819.54c-2.74,0.14-5.48,0.48-8.22,1.03
							c-30.21,6.04-49.87,35.53-43.84,65.73c6.04,30.21,35.52,49.89,65.74,43.84c30.21-6.04,49.87-35.53,43.84-65.73
							c-2.93-14.64-11.37-27.25-23.79-35.54C1263.62,822.14,1251.88,818.93,1239.98,819.54z"/>
					</g>
					<path class="st20" d="M1253.21,1053.17c-6.09,0.31-12.24,0.32-18.41,0.01l0,0c-1.94-0.1-3.89-0.23-5.83-0.38
						c-9.57-0.79-19.06-2.34-28.32-4.62c-0.13-0.03-0.25-0.06-0.38-0.09c-0.36-0.09-0.72-0.18-1.07-0.27
						c-0.7-0.18-1.39-0.36-2.08-0.55c-1.82-0.49-3.05-2.09-3.14-3.88c-0.02-0.44,0.02-0.88,0.14-1.32c0.61-2.27,2.94-3.6,5.21-3
						c11.66,3.13,23.74,5.03,35.9,5.63c60.4,3.04,115.14-25.88,147.81-71.88c18.17-25.58,29.51-56.45,31.19-90.04
						c0.3-5.89,0.29-11.75-0.01-17.57c-2-39.11-17.26-76.04-43.88-105.47c-30.58-33.81-72.5-53.69-118.03-55.97
						c-94.03-4.7-174.29,67.94-179,161.92c-0.29,5.8-0.29,11.58,0.01,17.34c1.28,24.95,8,49.34,19.76,71.4
						c0.3,0.57,0.47,1.18,0.49,1.78c0.08,1.59-0.74,3.17-2.24,3.97c-2.08,1.1-4.65,0.33-5.75-1.75
						c-12.35-23.16-19.41-48.77-20.75-74.96c-0.31-6.04-0.31-12.12-0.01-18.2c4.94-98.68,89.27-174.93,187.91-169.99
						c47.8,2.39,91.81,23.26,123.91,58.75c27.95,30.9,43.97,69.66,46.07,110.72c0.31,6.1,0.31,12.26,0.01,18.44
						c-2.4,47.8-23.26,91.81-58.75,123.92C1333.06,1035.06,1294.28,1051.07,1253.21,1053.17z"/>
				</g>
			</g>
			<g>
				<g class="st18">
					<path class="st19" d="M486.54,1251.8c-2.84,0.14-5.54-1.57-6.52-4.39c-1.84-5.26-3.55-10.64-5.07-16.01
						c-0.99-3.49,1.03-7.11,4.52-8.1c3.49-1.01,7.11,1.04,8.1,4.52c1.45,5.11,3.08,10.24,4.83,15.26c1.2,3.42-0.61,7.16-4.03,8.36
						C487.77,1251.66,487.15,1251.77,486.54,1251.8z"/>
					<path class="st19" d="M474.32,1202.83c-3.32,0.17-6.3-2.2-6.81-5.56c-1.46-9.48-2.45-19.14-2.93-28.72
						c-0.1-2.02-0.18-4.04-0.24-6.07c-0.1-3.63,2.94-6.52,6.36-6.76c3.62-0.11,6.65,2.74,6.76,6.36c0.06,1.94,0.13,3.88,0.23,5.8
						c0.47,9.13,1.41,18.35,2.79,27.39c0.55,3.58-1.91,6.93-5.49,7.49C474.76,1202.79,474.54,1202.82,474.32,1202.83z
						 M472.29,1134.72c-0.31,0.02-0.63,0.01-0.94-0.02c-3.61-0.34-6.27-3.53-5.93-7.14c1.07-11.58,2.86-23.19,5.33-34.52
						c0.77-3.54,4.29-5.78,7.81-5.01c3.54,0.78,5.78,4.27,5.01,7.81c-2.36,10.8-4.07,21.88-5.09,32.93
						C478.18,1132.06,475.5,1134.56,472.29,1134.72z M486.84,1068.16c-0.83,0.04-1.68-0.08-2.52-0.37c-3.42-1.21-5.21-4.96-4-8.38
						c3.87-10.95,8.46-21.77,13.66-32.17c1.62-3.25,5.55-4.56,8.8-2.93c3.24,1.62,4.55,5.56,2.93,8.8
						c-4.96,9.92-9.34,20.23-13.03,30.67C491.79,1066.37,489.42,1068.03,486.84,1068.16z M517.31,1007.21
						c-1.36,0.07-2.74-0.28-3.96-1.09c-3.02-2.01-3.84-6.09-1.83-9.1c6.45-9.68,13.55-19.05,21.11-27.84
						c2.37-2.74,6.51-3.05,9.25-0.69c2.75,2.36,3.06,6.5,0.69,9.26c-7.21,8.38-13.99,17.31-20.13,26.54
						C521.25,1006.09,519.32,1007.11,517.31,1007.21z M561.74,955.55c-1.89,0.1-3.82-0.63-5.19-2.14c-2.44-2.68-2.24-6.83,0.44-9.27
						c8.6-7.81,17.76-15.17,27.23-21.86c2.96-2.1,7.05-1.39,9.15,1.57c2.09,2.96,1.39,7.06-1.57,9.15
						c-9.04,6.39-17.77,13.41-25.98,20.86C564.65,954.91,563.2,955.48,561.74,955.55z M617.36,916.24
						c-2.45,0.13-4.88-1.14-6.12-3.46c-1.71-3.19-0.51-7.17,2.68-8.88c10.24-5.49,20.91-10.39,31.73-14.56
						c3.4-1.3,7.18,0.39,8.49,3.76c1.3,3.38-0.38,7.18-3.76,8.48c-10.32,3.98-20.49,8.65-30.25,13.88
						C619.24,915.95,618.29,916.2,617.36,916.24z M680.88,891.74c-3.07,0.16-5.92-1.87-6.69-4.97c-0.88-3.52,1.27-7.08,4.78-7.96
						c11.23-2.8,22.79-4.93,34.35-6.33c3.61-0.38,6.87,2.13,7.3,5.73c0.44,3.6-2.13,6.87-5.72,7.31
						c-11.03,1.33-22.05,3.36-32.76,6.03C681.71,891.66,681.29,891.71,680.88,891.74z M782.58,885.72
						c-0.38,0.02-0.77,0.01-1.16-0.04c-9.49-1.19-19.22-1.88-28.91-2.06c-1.47-0.03-2.91-0.05-4.35-0.05
						c-3.63-0.01-6.56-2.94-6.56-6.57c0-3.63,2.96-6.67,6.57-6.56c1.53,0.01,3.06,0.02,4.6,0.05c10.12,0.18,20.32,0.91,30.27,2.16
						c3.6,0.45,6.15,3.73,5.69,7.33C788.35,883.19,785.7,885.56,782.58,885.72z"/>
				</g>
				<g class="st18">
					<path class="st19" d="M765.89,1436.7c-3.58,0.18-6.65-2.55-6.88-6.14c-0.23-3.61,2.51-6.74,6.13-6.97
						c10.89-0.7,21.83-2.06,32.51-4.06c3.55-0.63,6.99,1.68,7.66,5.24c0.67,3.57-1.68,6.99-5.24,7.66
						c-11.21,2.09-22.67,3.53-34.09,4.26C765.96,1436.69,765.92,1436.69,765.89,1436.7z M732.32,1436.82
						c-0.24,0.01-0.47,0.01-0.71,0c-11.41-0.64-22.89-1.98-34.13-3.98c-3.57-0.64-5.95-4.04-5.31-7.61
						c0.63-3.57,4.06-5.94,7.61-5.32c10.73,1.91,21.68,3.19,32.57,3.8c3.62,0.2,6.39,3.3,6.18,6.92
						C738.34,1434.02,735.63,1436.65,732.32,1436.82z M831.75,1424.36c-2.91,0.15-5.66-1.66-6.59-4.57
						c-1.1-3.45,0.81-7.14,4.26-8.24c10.4-3.31,20.69-7.28,30.58-11.81c3.31-1.5,7.19-0.06,8.7,3.24c1.51,3.29,0.06,7.19-3.24,8.7
						c-10.37,4.74-21.15,8.91-32.06,12.38C832.86,1424.23,832.3,1424.33,831.75,1424.36z M666.33,1425.03
						c-0.75,0.04-1.51-0.05-2.27-0.28c-10.93-3.36-21.75-7.44-32.18-12.11c-3.31-1.48-4.79-5.36-3.31-8.67
						c1.48-3.3,5.36-4.78,8.67-3.3c9.94,4.45,20.26,8.34,30.68,11.55c3.46,1.07,5.41,4.74,4.34,8.2
						C671.43,1423.11,669,1424.89,666.33,1425.03z M892.67,1396.46c-2.32,0.12-4.63-1-5.93-3.12c-1.9-3.09-0.93-7.13,2.15-9.03
						c9.28-5.7,18.31-12.02,26.83-18.81c2.84-2.26,6.97-1.79,9.22,1.05c2.26,2.84,1.79,6.97-1.05,9.22
						c-8.94,7.11-18.4,13.75-28.13,19.72C894.79,1396.1,893.73,1396.41,892.67,1396.46z M945.12,1354.77
						c-1.78,0.09-3.58-0.54-4.94-1.88c-2.58-2.54-2.61-6.7-0.07-9.28c7.66-7.78,14.92-16.08,21.57-24.69
						c2.22-2.87,6.34-3.4,9.21-1.18c2.87,2.22,3.4,6.33,1.18,9.2c-6.97,9.02-14.58,17.73-22.61,25.88
						C948.26,1354.04,946.7,1354.69,945.12,1354.77z M986.07,1301.71c-1.25,0.06-2.53-0.22-3.68-0.92
						c-3.12-1.85-4.14-5.88-2.29-8.99c5.58-9.38,10.63-19.18,15.01-29.14c1.46-3.31,5.33-4.82,8.65-3.36
						c3.32,1.46,4.82,5.33,3.36,8.65c-4.6,10.44-9.89,20.72-15.74,30.56C990.22,1300.47,988.19,1301.6,986.07,1301.71z"/>
					<path class="st19" d="M604.88,1397.48c-1.26,0.06-2.56-0.24-3.72-0.94c-4.81-2.91-9.55-5.97-14.1-9.1
						c-2.98-2.06-3.74-6.14-1.68-9.13c2.06-2.97,6.14-3.73,9.13-1.68c4.34,2.99,8.86,5.91,13.45,8.68c3.1,1.88,4.09,5.91,2.22,9.01
						C608.99,1396.26,606.98,1397.37,604.88,1397.48z"/>
				</g>
				<g>
					<path class="st2" d="M606.01,1312.54c0.95,1.05,2.46,1.38,3.77,0.83l37.2-15.87c15.53,10.75,32.89,19.1,51.56,24.47
						l11.25,38.82c0.39,1.36,1.61,2.32,3.02,2.39l48.45,2.43c1.42,0.07,2.72-0.76,3.25-2.08l15.07-37.5
						c19.12-3.48,37.23-10.05,53.75-19.2l35.43,19.51c1.24,0.68,2.78,0.5,3.83-0.45l35.97-32.54c1.05-0.95,1.38-2.46,0.83-3.77
						l-15.87-37.2c10.75-15.53,19.1-32.89,24.47-51.57l38.82-11.25c1.36-0.39,2.32-1.61,2.39-3.02l2.43-48.45
						c0.07-1.42-0.76-2.72-2.08-3.25l-37.5-15.07c-3.48-19.12-10.05-37.23-19.2-53.75l19.51-35.43c0.68-1.24,0.5-2.78-0.45-3.83
						l-32.54-35.97c-0.95-1.05-2.46-1.38-3.77-0.83l-37.2,15.87c-15.53-10.75-32.89-19.1-51.56-24.47l-11.25-38.82
						c-0.39-1.36-1.61-2.32-3.02-2.39l-48.45-2.43c-1.42-0.07-2.72,0.76-3.25,2.08l-15.07,37.5c-19.12,3.48-37.23,10.05-53.75,19.2
						L626.63,977c-1.24-0.68-2.78-0.5-3.83,0.45l-35.97,32.54c-1.05,0.95-1.38,2.46-0.83,3.77l15.87,37.2
						c-10.75,15.53-19.1,32.89-24.47,51.57l-38.82,11.25c-1.36,0.39-2.32,1.61-2.39,3.03l-2.43,48.45
						c-0.07,1.42,0.76,2.72,2.08,3.25l37.5,15.07c3.48,19.12,10.05,37.22,19.2,53.75l-19.51,35.43c-0.68,1.24-0.5,2.78,0.45,3.83
						L606.01,1312.54z"/>
					<g>
						<path class="st20" d="M750.11,1201.25c-10.57,0.54-21-2.31-29.96-8.29c-11.03-7.36-18.53-18.57-21.13-31.57
							c-5.36-26.83,12.1-53.03,38.94-58.4c26.88-5.32,53.04,12.11,58.4,38.95c2.6,13-0.02,26.24-7.38,37.27
							c-7.36,11.03-18.57,18.54-31.57,21.13C754.99,1200.83,752.54,1201.13,750.11,1201.25z M745.85,1115.2
							c-1.76,0.09-3.54,0.31-5.32,0.66c-19.74,3.95-32.59,23.22-28.65,42.96c1.91,9.56,7.43,17.81,15.54,23.22
							c8.12,5.41,17.85,7.33,27.42,5.43l0,0c9.56-1.91,17.81-7.43,23.22-15.54c5.41-8.12,7.34-17.85,5.43-27.42
							C779.91,1126.55,763.63,1114.29,745.85,1115.2z"/>
					</g>
					<path class="st20" d="M754.78,1274.37c-4.15,0.21-8.34,0.21-12.57,0.01c-8.4-0.42-16.78-1.69-24.9-3.79
						c-0.36-0.1-0.73-0.19-1.09-0.29c-2.82-0.75-4.71-3.23-4.85-6c-0.03-0.67,0.04-1.36,0.22-2.04c0.94-3.5,4.54-5.56,8.04-4.63
						c7.57,2.03,15.39,3.26,23.24,3.65l0,0c0.43,0.02,0.86,0.04,1.29,0.06c18.6,0.75,36.68-3.16,52.94-11.17
						c8.83-4.35,17.12-9.92,24.67-16.63c0.06-0.05,0.12-0.11,0.18-0.16c0.19-0.17,0.37-0.33,0.56-0.5
						c21.88-19.8,34.75-46.94,36.23-76.41c0.19-3.81,0.19-7.61,0-11.37c-1.29-25.32-11.17-49.22-28.41-68.28
						c-19.8-21.89-46.94-34.75-76.41-36.22c-29.46-1.46-57.76,8.62-79.65,28.41c-21.88,19.8-34.75,46.94-36.23,76.41
						c-0.19,3.75-0.19,7.5,0,11.22c0.83,16.15,5.18,31.94,12.79,46.22c0.47,0.88,0.72,1.82,0.76,2.75c0.13,2.46-1.15,4.89-3.46,6.12
						c-3.2,1.7-7.17,0.5-8.88-2.7c-8.52-15.98-13.39-33.65-14.32-51.71c-0.21-4.17-0.22-8.36-0.01-12.56
						c1.65-32.98,16.05-63.34,40.54-85.49c24.49-22.15,56.11-33.46,89.11-31.79c32.98,1.65,63.34,16.04,85.49,40.53
						c19.29,21.32,30.34,48.06,31.79,76.39c0.21,4.2,0.22,8.45,0.01,12.72C868.66,1220.94,817.3,1271.18,754.78,1274.37z"/>
				</g>
			</g>
		</g>
	</g>
</g>
</svg>
